G04 Layer_Physical_Order=1*
G04 Layer_Color=255*
%FSAX25Y25*%
%MOIN*%
G70*
G01*
G75*
%ADD10R,0.02362X0.01969*%
G04:AMPARAMS|DCode=11|XSize=15.75mil|YSize=30mil|CornerRadius=0mil|HoleSize=0mil|Usage=FLASHONLY|Rotation=315.000|XOffset=0mil|YOffset=0mil|HoleType=Round|Shape=Octagon|*
%AMOCTAGOND11*
4,1,8,0.00782,0.01339,0.01339,0.00782,0.01339,0.00226,-0.00226,-0.01339,-0.00782,-0.01339,-0.01339,-0.00782,-0.01339,-0.00226,0.00226,0.01339,0.00782,0.01339,0.0*
%
%ADD11OCTAGOND11*%

G04:AMPARAMS|DCode=12|XSize=15mil|YSize=30mil|CornerRadius=0mil|HoleSize=0mil|Usage=FLASHONLY|Rotation=225.000|XOffset=0mil|YOffset=0mil|HoleType=Round|Shape=Octagon|*
%AMOCTAGOND12*
4,1,8,0.01326,-0.00796,0.00796,-0.01326,0.00265,-0.01326,-0.01326,0.00265,-0.01326,0.00796,-0.00796,0.01326,-0.00265,0.01326,0.01326,-0.00265,0.01326,-0.00796,0.0*
%
%ADD12OCTAGOND12*%

%ADD13P,0.03677X4X270.0*%
G04:AMPARAMS|DCode=14|XSize=15mil|YSize=30mil|CornerRadius=0mil|HoleSize=0mil|Usage=FLASHONLY|Rotation=315.000|XOffset=0mil|YOffset=0mil|HoleType=Round|Shape=Octagon|*
%AMOCTAGOND14*
4,1,8,0.00796,0.01326,0.01326,0.00796,0.01326,0.00265,-0.00265,-0.01326,-0.00796,-0.01326,-0.01326,-0.00796,-0.01326,-0.00265,0.00265,0.01326,0.00796,0.01326,0.0*
%
%ADD14OCTAGOND14*%

%ADD15O,0.04724X0.03150*%
%ADD16O,0.03937X0.01575*%
%ADD17R,0.03150X0.03937*%
%ADD18O,0.03150X0.04724*%
%ADD19O,0.01575X0.03937*%
%ADD20R,0.06000X0.02000*%
G04:AMPARAMS|DCode=21|XSize=11mil|YSize=31.5mil|CornerRadius=2.75mil|HoleSize=0mil|Usage=FLASHONLY|Rotation=270.000|XOffset=0mil|YOffset=0mil|HoleType=Round|Shape=RoundedRectangle|*
%AMROUNDEDRECTD21*
21,1,0.01100,0.02600,0,0,270.0*
21,1,0.00550,0.03150,0,0,270.0*
1,1,0.00550,-0.01300,-0.00275*
1,1,0.00550,-0.01300,0.00275*
1,1,0.00550,0.01300,0.00275*
1,1,0.00550,0.01300,-0.00275*
%
%ADD21ROUNDEDRECTD21*%
%ADD22R,0.04724X0.07874*%
%ADD23R,0.03937X0.03150*%
%ADD24R,0.03000X0.03000*%
%ADD25R,0.06299X0.06299*%
G04:AMPARAMS|DCode=26|XSize=62.99mil|YSize=62.99mil|CornerRadius=6.3mil|HoleSize=0mil|Usage=FLASHONLY|Rotation=0.000|XOffset=0mil|YOffset=0mil|HoleType=Round|Shape=RoundedRectangle|*
%AMROUNDEDRECTD26*
21,1,0.06299,0.05039,0,0,0.0*
21,1,0.05039,0.06299,0,0,0.0*
1,1,0.01260,0.02520,-0.02520*
1,1,0.01260,-0.02520,-0.02520*
1,1,0.01260,-0.02520,0.02520*
1,1,0.01260,0.02520,0.02520*
%
%ADD26ROUNDEDRECTD26*%
%ADD27R,0.01969X0.03937*%
%ADD28R,0.03937X0.01969*%
%ADD29R,0.01969X0.02362*%
G04:AMPARAMS|DCode=30|XSize=157.48mil|YSize=59.06mil|CornerRadius=14.76mil|HoleSize=0mil|Usage=FLASHONLY|Rotation=0.000|XOffset=0mil|YOffset=0mil|HoleType=Round|Shape=RoundedRectangle|*
%AMROUNDEDRECTD30*
21,1,0.15748,0.02953,0,0,0.0*
21,1,0.12795,0.05906,0,0,0.0*
1,1,0.02953,0.06398,-0.01476*
1,1,0.02953,-0.06398,-0.01476*
1,1,0.02953,-0.06398,0.01476*
1,1,0.02953,0.06398,0.01476*
%
%ADD30ROUNDEDRECTD30*%
%ADD31R,0.15748X0.07874*%
%ADD32C,0.00800*%
%ADD33C,0.01200*%
%ADD34C,0.02000*%
%ADD35C,0.01500*%
%ADD36C,0.01100*%
%ADD37R,0.03000X0.05500*%
%ADD38C,0.05906*%
%ADD39R,0.05906X0.05906*%
%ADD40R,0.06000X0.06000*%
%ADD41C,0.06000*%
%ADD42C,0.03150*%
G36*
X0315961Y0220947D02*
X0299797D01*
X0304137Y0216607D01*
X0302189Y0214658D01*
X0297848Y0218999D01*
Y0210317D01*
Y0206534D01*
X0302189Y0210874D01*
X0304137Y0208926D01*
X0299797Y0204585D01*
X0315961D01*
Y0201544D01*
X0315360Y0201362D01*
X0315009Y0201888D01*
X0314316Y0202351D01*
X0313498Y0202514D01*
X0300702D01*
X0299884Y0202351D01*
X0299191Y0201888D01*
X0298728Y0201194D01*
X0298613Y0200620D01*
X0294227D01*
X0294028Y0201138D01*
X0294028D01*
Y0203913D01*
X0292640Y0202526D01*
X0290691Y0204474D01*
X0292079Y0205862D01*
X0288910D01*
Y0205104D01*
X0287770D01*
X0287531Y0205152D01*
X0287293Y0205104D01*
X0285730D01*
Y0201896D01*
X0285848D01*
Y0198969D01*
X0285896Y0198730D01*
X0285896Y0197000D01*
X0285896Y0196567D01*
Y0195270D01*
X0285848Y0195031D01*
X0285880Y0194873D01*
Y0192104D01*
X0285730D01*
Y0188896D01*
X0285817D01*
Y0187884D01*
X0285333Y0187604D01*
X0285067Y0187604D01*
X0283786D01*
X0283528Y0187656D01*
X0279547D01*
Y0191516D01*
X0278969D01*
Y0193668D01*
Y0196818D01*
Y0199968D01*
Y0203678D01*
X0279863D01*
X0280189Y0203189D01*
X0280975Y0202665D01*
X0281902Y0202480D01*
X0282828Y0202665D01*
X0283614Y0203189D01*
X0284139Y0203975D01*
X0284323Y0204902D01*
X0284208Y0205478D01*
X0287430Y0208700D01*
X0289050Y0208700D01*
X0289372Y0208233D01*
Y0208122D01*
X0293179D01*
X0291276Y0210026D01*
X0293224Y0211974D01*
X0295128Y0210071D01*
Y0213122D01*
Y0216929D01*
X0293224Y0215026D01*
X0291276Y0216974D01*
X0293179Y0218878D01*
X0289372D01*
Y0218767D01*
X0289050Y0218300D01*
X0288772Y0218300D01*
X0287723D01*
Y0235445D01*
X0288393Y0235722D01*
X0289177Y0236323D01*
X0289778Y0237107D01*
X0290156Y0238020D01*
X0290285Y0239000D01*
X0290156Y0239980D01*
X0289778Y0240893D01*
X0289177Y0241676D01*
X0288393Y0242278D01*
X0287480Y0242656D01*
X0286500Y0242785D01*
X0285520Y0242656D01*
X0284607Y0242278D01*
X0283823Y0241676D01*
X0283222Y0240893D01*
X0282844Y0239980D01*
X0282715Y0239000D01*
X0282844Y0238020D01*
X0283222Y0237107D01*
X0283823Y0236323D01*
X0284607Y0235722D01*
X0285277Y0235445D01*
Y0225049D01*
X0284999Y0224957D01*
X0284677Y0224949D01*
X0284465Y0225265D01*
X0277724Y0232007D01*
Y0235445D01*
X0278393Y0235722D01*
X0279176Y0236323D01*
X0279778Y0237107D01*
X0280156Y0238020D01*
X0280285Y0239000D01*
X0280156Y0239980D01*
X0279778Y0240893D01*
X0279176Y0241676D01*
X0278393Y0242278D01*
X0277480Y0242656D01*
X0276500Y0242785D01*
X0275520Y0242656D01*
X0274607Y0242278D01*
X0273823Y0241676D01*
X0273222Y0240893D01*
X0272844Y0239980D01*
X0272715Y0239000D01*
X0272844Y0238020D01*
X0273222Y0237107D01*
X0273823Y0236323D01*
X0274607Y0235722D01*
X0275276Y0235445D01*
Y0232738D01*
X0274722Y0232508D01*
X0269879Y0237351D01*
X0270156Y0238020D01*
X0270285Y0239000D01*
X0270156Y0239980D01*
X0269778Y0240893D01*
X0269177Y0241676D01*
X0268393Y0242278D01*
X0267480Y0242656D01*
X0266500Y0242785D01*
X0265520Y0242656D01*
X0264851Y0242379D01*
X0263212Y0244018D01*
X0262815Y0244283D01*
X0262347Y0244376D01*
X0234153D01*
X0233684Y0244283D01*
X0233288Y0244018D01*
X0230350Y0241080D01*
X0230247Y0241047D01*
X0229693Y0241084D01*
X0229593Y0241134D01*
X0229176Y0241676D01*
X0228393Y0242278D01*
X0227480Y0242656D01*
X0226500Y0242785D01*
X0225520Y0242656D01*
X0224607Y0242278D01*
X0223823Y0241676D01*
X0223222Y0240893D01*
X0222844Y0239980D01*
X0222715Y0239000D01*
X0222844Y0238020D01*
X0223222Y0237107D01*
X0223823Y0236323D01*
X0224607Y0235722D01*
X0225520Y0235344D01*
X0226500Y0235215D01*
X0226657Y0235236D01*
X0226937Y0234667D01*
X0225493Y0233224D01*
X0197747D01*
X0197491Y0233823D01*
X0197630Y0234032D01*
X0197723Y0234500D01*
Y0235445D01*
X0198393Y0235722D01*
X0199177Y0236323D01*
X0199778Y0237107D01*
X0200156Y0238020D01*
X0200285Y0239000D01*
X0200156Y0239980D01*
X0199778Y0240893D01*
X0199177Y0241676D01*
X0198393Y0242278D01*
X0197480Y0242656D01*
X0196500Y0242785D01*
X0195520Y0242656D01*
X0194607Y0242278D01*
X0193824Y0241676D01*
X0193222Y0240893D01*
X0192844Y0239980D01*
X0192715Y0239000D01*
X0192844Y0238020D01*
X0193222Y0237107D01*
X0193824Y0236323D01*
X0194475Y0235823D01*
X0194329Y0235236D01*
X0194322Y0235224D01*
X0188678D01*
X0188671Y0235236D01*
X0188525Y0235823D01*
X0189176Y0236323D01*
X0189778Y0237107D01*
X0190156Y0238020D01*
X0190285Y0239000D01*
X0190156Y0239980D01*
X0189778Y0240893D01*
X0189176Y0241676D01*
X0188393Y0242278D01*
X0187480Y0242656D01*
X0186500Y0242785D01*
X0185520Y0242656D01*
X0184851Y0242379D01*
X0181865Y0245365D01*
X0181468Y0245630D01*
X0181000Y0245724D01*
X0163000D01*
X0162532Y0245630D01*
X0162135Y0245365D01*
X0159135Y0242365D01*
X0158870Y0241968D01*
X0158776Y0241500D01*
Y0205500D01*
X0158870Y0205032D01*
X0159135Y0204635D01*
X0162700Y0201070D01*
Y0195200D01*
X0170300D01*
Y0202800D01*
X0164430D01*
X0161223Y0206007D01*
Y0221762D01*
X0161778Y0221992D01*
X0163085Y0220685D01*
X0162798Y0219992D01*
X0162667Y0219000D01*
X0162798Y0218008D01*
X0163181Y0217084D01*
X0163790Y0216290D01*
X0164584Y0215681D01*
X0165508Y0215298D01*
X0166500Y0215167D01*
X0167492Y0215298D01*
X0168416Y0215681D01*
X0169210Y0216290D01*
X0169819Y0217084D01*
X0170202Y0218008D01*
X0170333Y0219000D01*
X0170202Y0219992D01*
X0169819Y0220916D01*
X0169210Y0221710D01*
X0168416Y0222319D01*
X0167492Y0222702D01*
X0166500Y0222833D01*
X0165508Y0222702D01*
X0164815Y0222415D01*
X0163224Y0224007D01*
Y0226098D01*
X0163603Y0226227D01*
X0163823Y0226264D01*
X0164584Y0225681D01*
X0165508Y0225298D01*
X0166500Y0225167D01*
X0167492Y0225298D01*
X0168416Y0225681D01*
X0169210Y0226290D01*
X0169819Y0227084D01*
X0170202Y0228008D01*
X0170333Y0229000D01*
X0170202Y0229992D01*
X0170126Y0230176D01*
X0170527Y0230777D01*
X0226000D01*
X0226468Y0230870D01*
X0226865Y0231135D01*
X0231865Y0236135D01*
X0232130Y0236532D01*
X0232224Y0237000D01*
Y0238135D01*
X0232823Y0238175D01*
X0232844Y0238020D01*
X0233222Y0237107D01*
X0233823Y0236323D01*
X0234607Y0235722D01*
X0235520Y0235344D01*
X0236500Y0235215D01*
X0237480Y0235344D01*
X0238393Y0235722D01*
X0239177Y0236323D01*
X0239234Y0236398D01*
X0239832Y0236437D01*
X0242288Y0233982D01*
X0242685Y0233717D01*
X0243153Y0233624D01*
X0250383D01*
X0253168Y0230839D01*
X0252939Y0230284D01*
X0251590D01*
Y0230862D01*
X0248421D01*
X0249809Y0229474D01*
X0247860Y0227526D01*
X0246472Y0228913D01*
Y0227771D01*
X0246094Y0227625D01*
X0245588Y0228033D01*
Y0228765D01*
X0245574Y0228778D01*
Y0229318D01*
X0243418Y0231474D01*
X0242322D01*
X0241450Y0230603D01*
X0240678Y0231374D01*
X0240195D01*
X0240100Y0231470D01*
X0240004Y0231374D01*
X0239582D01*
X0237931Y0229724D01*
X0235707D01*
X0235300Y0229995D01*
X0234681Y0230118D01*
X0232912D01*
X0232850Y0230212D01*
X0232064Y0230737D01*
X0231138Y0230921D01*
X0229563D01*
X0228636Y0230737D01*
X0227851Y0230212D01*
X0227326Y0229427D01*
X0227142Y0228500D01*
X0227326Y0227573D01*
X0227851Y0226788D01*
X0228636Y0226263D01*
X0229563Y0226079D01*
X0231138D01*
X0232064Y0226263D01*
X0232850Y0226788D01*
X0232912Y0226882D01*
X0234681D01*
X0235300Y0227005D01*
X0235707Y0227276D01*
X0237931D01*
X0238954Y0226254D01*
Y0223024D01*
X0235243D01*
Y0219284D01*
X0233723D01*
Y0220000D01*
X0233630Y0220468D01*
X0233365Y0220865D01*
X0232365Y0221865D01*
X0231968Y0222130D01*
X0231500Y0222223D01*
X0227877D01*
X0227737Y0222927D01*
X0227212Y0223712D01*
X0226427Y0224237D01*
X0225500Y0224421D01*
X0224573Y0224237D01*
X0223788Y0223712D01*
X0223263Y0222927D01*
X0223079Y0222000D01*
X0223263Y0221073D01*
X0223430Y0220824D01*
X0223109Y0220223D01*
X0222039D01*
X0221712Y0220712D01*
X0220927Y0221237D01*
X0220000Y0221421D01*
X0219073Y0221237D01*
X0218288Y0220712D01*
X0217763Y0219927D01*
X0217579Y0219000D01*
X0217763Y0218073D01*
X0218288Y0217288D01*
X0219073Y0216763D01*
X0220000Y0216579D01*
X0220927Y0216763D01*
X0221712Y0217288D01*
X0222039Y0217776D01*
X0224993D01*
X0228767Y0214003D01*
X0229153Y0213563D01*
Y0209632D01*
X0227632D01*
Y0209949D01*
X0227511Y0210554D01*
X0227374Y0210760D01*
X0227421Y0211000D01*
X0227237Y0211927D01*
X0226712Y0212712D01*
X0225927Y0213237D01*
X0225000Y0213421D01*
X0224150Y0213252D01*
X0223882Y0213339D01*
X0223550Y0213517D01*
Y0213800D01*
X0219228D01*
X0218950Y0213800D01*
X0218628Y0214267D01*
Y0214378D01*
X0212872D01*
Y0213606D01*
X0212272Y0213268D01*
X0211500Y0213421D01*
X0210573Y0213237D01*
X0209788Y0212712D01*
X0209700Y0212580D01*
X0204092D01*
X0202619Y0214054D01*
Y0215088D01*
X0202712Y0215150D01*
X0203237Y0215936D01*
X0203421Y0216862D01*
Y0218437D01*
X0203237Y0219364D01*
X0202712Y0220149D01*
X0201927Y0220674D01*
X0201000Y0220858D01*
X0200073Y0220674D01*
X0199288Y0220149D01*
X0198763Y0219364D01*
X0198579Y0218437D01*
Y0216862D01*
X0198642Y0216544D01*
X0198261Y0216080D01*
X0193000D01*
X0192395Y0215960D01*
X0191883Y0215617D01*
X0190500Y0214235D01*
X0186618Y0218117D01*
X0186300Y0218330D01*
Y0220800D01*
X0178700D01*
Y0213200D01*
X0186300D01*
Y0213200D01*
X0186841Y0213424D01*
X0188920Y0211345D01*
Y0199650D01*
X0188775Y0199531D01*
X0188077Y0199577D01*
X0188077Y0199577D01*
X0187077Y0200577D01*
X0186812Y0200754D01*
X0186500Y0200816D01*
X0186500Y0200816D01*
X0176500D01*
X0176188Y0200754D01*
X0175923Y0200577D01*
X0175923Y0200577D01*
X0174923Y0199577D01*
X0174746Y0199312D01*
X0174684Y0199000D01*
X0174684Y0199000D01*
Y0195500D01*
X0174746Y0195188D01*
X0174792Y0195120D01*
X0174809Y0195030D01*
X0174986Y0194766D01*
X0175251Y0194589D01*
X0175563Y0194527D01*
X0178313D01*
X0178350Y0194534D01*
X0178387Y0194530D01*
X0178505Y0194565D01*
X0178625Y0194589D01*
X0178656Y0194610D01*
X0178692Y0194620D01*
X0178788Y0194697D01*
X0178890Y0194766D01*
X0178911Y0194797D01*
X0178940Y0194820D01*
X0179945Y0196027D01*
X0183181D01*
X0184186Y0194820D01*
X0184215Y0194797D01*
X0184236Y0194766D01*
X0184338Y0194697D01*
X0184434Y0194620D01*
X0184470Y0194610D01*
X0184501Y0194589D01*
X0184621Y0194565D01*
X0184739Y0194530D01*
X0184776Y0194534D01*
X0184813Y0194527D01*
X0186527D01*
X0187058Y0193995D01*
X0187058Y0193995D01*
X0187505Y0193697D01*
X0188031Y0193592D01*
X0188132Y0193469D01*
X0188094Y0193275D01*
Y0192725D01*
X0187833Y0192408D01*
X0187031D01*
X0186568Y0192316D01*
X0184750D01*
X0184713Y0192308D01*
X0184676Y0192312D01*
X0184558Y0192278D01*
X0184438Y0192254D01*
X0184407Y0192233D01*
X0184371Y0192222D01*
X0184275Y0192145D01*
X0184173Y0192077D01*
X0184152Y0192046D01*
X0184123Y0192022D01*
X0183118Y0190816D01*
X0179882D01*
X0178877Y0192022D01*
X0178848Y0192046D01*
X0178827Y0192077D01*
X0178725Y0192145D01*
X0178629Y0192222D01*
X0178593Y0192233D01*
X0178562Y0192254D01*
X0178442Y0192278D01*
X0178324Y0192312D01*
X0178287Y0192308D01*
X0178250Y0192316D01*
X0175500D01*
X0175188Y0192254D01*
X0174923Y0192077D01*
X0174746Y0191812D01*
X0174684Y0191500D01*
Y0188000D01*
X0174684Y0188000D01*
X0174746Y0187688D01*
X0174923Y0187423D01*
X0174923Y0187423D01*
X0175923Y0186423D01*
X0175923Y0186423D01*
X0176188Y0186246D01*
X0176500Y0186184D01*
X0176500Y0186184D01*
X0186500D01*
X0186812Y0186246D01*
X0187077Y0186423D01*
X0187077Y0186423D01*
X0187628Y0186974D01*
X0188228Y0186726D01*
Y0185768D01*
X0187688D01*
Y0183221D01*
X0185303Y0180835D01*
X0170300D01*
Y0182800D01*
X0162700D01*
Y0175200D01*
X0164665D01*
Y0162302D01*
X0164607Y0162278D01*
X0163823Y0161677D01*
X0163222Y0160893D01*
X0162844Y0159980D01*
X0162715Y0159000D01*
X0162844Y0158020D01*
X0163222Y0157107D01*
X0163823Y0156324D01*
X0164607Y0155722D01*
X0165520Y0155344D01*
X0166500Y0155215D01*
X0167480Y0155344D01*
X0168393Y0155722D01*
X0169176Y0156324D01*
X0169778Y0157107D01*
X0170156Y0158020D01*
X0170285Y0159000D01*
X0170156Y0159980D01*
X0169778Y0160893D01*
X0169176Y0161677D01*
X0168393Y0162278D01*
X0168335Y0162302D01*
Y0175200D01*
X0170300D01*
Y0177165D01*
X0186063D01*
X0186765Y0177304D01*
X0187361Y0177702D01*
X0189890Y0180231D01*
X0192438D01*
Y0185768D01*
X0191898D01*
Y0187235D01*
X0192260Y0187685D01*
X0199740D01*
Y0187692D01*
X0200894D01*
X0200921Y0187687D01*
X0203731D01*
Y0186688D01*
X0209268D01*
X0209484Y0186177D01*
X0209540Y0185895D01*
X0209807Y0185495D01*
X0209723Y0185097D01*
X0209579Y0184838D01*
X0209073Y0184737D01*
X0208288Y0184212D01*
X0207982Y0183755D01*
X0207345Y0183882D01*
X0207237Y0184427D01*
X0206712Y0185212D01*
X0205927Y0185737D01*
X0205000Y0185921D01*
X0204073Y0185737D01*
X0203288Y0185212D01*
X0202763Y0184427D01*
X0202579Y0183500D01*
X0202763Y0182573D01*
X0203288Y0181788D01*
X0203777Y0181461D01*
Y0180507D01*
X0189493Y0166224D01*
X0178500D01*
X0178032Y0166130D01*
X0177635Y0165865D01*
X0175635Y0163865D01*
X0175370Y0163468D01*
X0175277Y0163000D01*
Y0162555D01*
X0174607Y0162278D01*
X0173823Y0161677D01*
X0173222Y0160893D01*
X0172844Y0159980D01*
X0172715Y0159000D01*
X0172844Y0158020D01*
X0173222Y0157107D01*
X0173823Y0156324D01*
X0174607Y0155722D01*
X0175520Y0155344D01*
X0176500Y0155215D01*
X0177480Y0155344D01*
X0178393Y0155722D01*
X0179176Y0156324D01*
X0179778Y0157107D01*
X0180156Y0158020D01*
X0180285Y0159000D01*
X0180156Y0159980D01*
X0179778Y0160893D01*
X0179176Y0161677D01*
X0178393Y0162278D01*
X0178266Y0162330D01*
X0178149Y0162919D01*
X0179007Y0163777D01*
X0188762D01*
X0188992Y0163222D01*
X0188149Y0162379D01*
X0187480Y0162656D01*
X0186500Y0162785D01*
X0185520Y0162656D01*
X0184607Y0162278D01*
X0183824Y0161677D01*
X0183222Y0160893D01*
X0182844Y0159980D01*
X0182715Y0159000D01*
X0182844Y0158020D01*
X0183222Y0157107D01*
X0183824Y0156324D01*
X0184607Y0155722D01*
X0185520Y0155344D01*
X0186500Y0155215D01*
X0187480Y0155344D01*
X0188393Y0155722D01*
X0189176Y0156324D01*
X0189778Y0157107D01*
X0190156Y0158020D01*
X0190285Y0159000D01*
X0190156Y0159980D01*
X0189879Y0160649D01*
X0209424Y0180193D01*
X0210000Y0180079D01*
X0210927Y0180263D01*
X0211712Y0180788D01*
X0212237Y0181573D01*
X0212421Y0182500D01*
X0212369Y0182763D01*
X0212888Y0183231D01*
X0217437D01*
Y0188622D01*
X0218628D01*
Y0188733D01*
X0218700Y0188838D01*
X0218999Y0188858D01*
X0219562Y0188325D01*
Y0183231D01*
X0224312D01*
Y0188768D01*
X0223957D01*
X0223550Y0189200D01*
Y0193800D01*
X0223550D01*
X0223550Y0194200D01*
X0223550D01*
Y0198800D01*
X0223550D01*
Y0199200D01*
X0223550D01*
Y0200172D01*
X0224347D01*
X0224748Y0199572D01*
X0224623Y0199271D01*
X0224522Y0198500D01*
X0224623Y0197729D01*
X0224669Y0197618D01*
X0226526Y0199474D01*
X0228474Y0197526D01*
X0226618Y0195669D01*
X0226729Y0195623D01*
X0227500Y0195522D01*
X0228271Y0195623D01*
X0228989Y0195921D01*
X0229132Y0196030D01*
X0229731Y0195734D01*
Y0193668D01*
Y0190519D01*
Y0187369D01*
Y0184220D01*
Y0181070D01*
X0235243D01*
Y0177724D01*
X0209500D01*
X0209032Y0177630D01*
X0208635Y0177365D01*
X0195635Y0164365D01*
X0195370Y0163968D01*
X0195276Y0163500D01*
Y0162555D01*
X0194607Y0162278D01*
X0193824Y0161677D01*
X0193222Y0160893D01*
X0192844Y0159980D01*
X0192715Y0159000D01*
X0192844Y0158020D01*
X0193222Y0157107D01*
X0193824Y0156324D01*
X0194607Y0155722D01*
X0195520Y0155344D01*
X0196500Y0155215D01*
X0197480Y0155344D01*
X0198393Y0155722D01*
X0199177Y0156324D01*
X0199778Y0157107D01*
X0200156Y0158020D01*
X0200285Y0159000D01*
X0200156Y0159980D01*
X0199778Y0160893D01*
X0199177Y0161677D01*
X0198393Y0162278D01*
X0197919Y0162474D01*
X0197840Y0163110D01*
X0204722Y0169992D01*
X0205276Y0169762D01*
Y0162555D01*
X0204607Y0162278D01*
X0203823Y0161677D01*
X0203222Y0160893D01*
X0202844Y0159980D01*
X0202715Y0159000D01*
X0202844Y0158020D01*
X0203222Y0157107D01*
X0203823Y0156324D01*
X0204607Y0155722D01*
X0205520Y0155344D01*
X0206500Y0155215D01*
X0207480Y0155344D01*
X0208393Y0155722D01*
X0209176Y0156324D01*
X0209778Y0157107D01*
X0210156Y0158020D01*
X0210285Y0159000D01*
X0210156Y0159980D01*
X0209778Y0160893D01*
X0209176Y0161677D01*
X0208393Y0162278D01*
X0207723Y0162555D01*
Y0170730D01*
X0210669Y0173677D01*
X0216162D01*
X0216392Y0173122D01*
X0215635Y0172365D01*
X0215370Y0171968D01*
X0215277Y0171500D01*
Y0162555D01*
X0214607Y0162278D01*
X0213824Y0161677D01*
X0213222Y0160893D01*
X0212844Y0159980D01*
X0212715Y0159000D01*
X0212844Y0158020D01*
X0213222Y0157107D01*
X0213824Y0156324D01*
X0214607Y0155722D01*
X0215520Y0155344D01*
X0216500Y0155215D01*
X0217480Y0155344D01*
X0218393Y0155722D01*
X0219177Y0156324D01*
X0219778Y0157107D01*
X0220156Y0158020D01*
X0220285Y0159000D01*
X0220156Y0159980D01*
X0219778Y0160893D01*
X0219177Y0161677D01*
X0218393Y0162278D01*
X0217723Y0162555D01*
Y0170993D01*
X0218807Y0172076D01*
X0227062D01*
X0227292Y0171522D01*
X0225635Y0169865D01*
X0225370Y0169468D01*
X0225276Y0169000D01*
Y0162555D01*
X0224607Y0162278D01*
X0223823Y0161677D01*
X0223222Y0160893D01*
X0222844Y0159980D01*
X0222715Y0159000D01*
X0222844Y0158020D01*
X0223222Y0157107D01*
X0223823Y0156324D01*
X0224607Y0155722D01*
X0225520Y0155344D01*
X0226500Y0155215D01*
X0227480Y0155344D01*
X0228393Y0155722D01*
X0229176Y0156324D01*
X0229778Y0157107D01*
X0230156Y0158020D01*
X0230285Y0159000D01*
X0230156Y0159980D01*
X0229778Y0160893D01*
X0229176Y0161677D01*
X0228393Y0162278D01*
X0227724Y0162555D01*
Y0168493D01*
X0229507Y0170276D01*
X0238862D01*
X0239092Y0169722D01*
X0235635Y0166265D01*
X0235370Y0165868D01*
X0235277Y0165400D01*
Y0162555D01*
X0234607Y0162278D01*
X0233823Y0161677D01*
X0233222Y0160893D01*
X0232844Y0159980D01*
X0232715Y0159000D01*
X0232844Y0158020D01*
X0233222Y0157107D01*
X0233823Y0156324D01*
X0234607Y0155722D01*
X0235520Y0155344D01*
X0236500Y0155215D01*
X0237480Y0155344D01*
X0238393Y0155722D01*
X0239177Y0156324D01*
X0239778Y0157107D01*
X0240156Y0158020D01*
X0240285Y0159000D01*
X0240156Y0159980D01*
X0239778Y0160893D01*
X0239177Y0161677D01*
X0238393Y0162278D01*
X0237723Y0162555D01*
Y0164893D01*
X0241507Y0168676D01*
X0246900D01*
X0247147Y0168726D01*
X0247442Y0168173D01*
X0245635Y0166365D01*
X0245370Y0165968D01*
X0245276Y0165500D01*
Y0162555D01*
X0244607Y0162278D01*
X0243824Y0161677D01*
X0243222Y0160893D01*
X0242844Y0159980D01*
X0242715Y0159000D01*
X0242844Y0158020D01*
X0243222Y0157107D01*
X0243824Y0156324D01*
X0244607Y0155722D01*
X0245520Y0155344D01*
X0246500Y0155215D01*
X0247480Y0155344D01*
X0248393Y0155722D01*
X0249177Y0156324D01*
X0249778Y0157107D01*
X0250156Y0158020D01*
X0250285Y0159000D01*
X0250156Y0159980D01*
X0249778Y0160893D01*
X0249177Y0161677D01*
X0248393Y0162278D01*
X0247724Y0162555D01*
Y0164993D01*
X0256790Y0174060D01*
X0257056Y0174457D01*
X0257149Y0174925D01*
Y0177330D01*
X0257851D01*
Y0169582D01*
X0255635Y0167365D01*
X0255370Y0166968D01*
X0255276Y0166500D01*
Y0162555D01*
X0254607Y0162278D01*
X0253823Y0161677D01*
X0253222Y0160893D01*
X0252844Y0159980D01*
X0252715Y0159000D01*
X0252844Y0158020D01*
X0253222Y0157107D01*
X0253823Y0156324D01*
X0254607Y0155722D01*
X0255520Y0155344D01*
X0256500Y0155215D01*
X0257480Y0155344D01*
X0258393Y0155722D01*
X0259176Y0156324D01*
X0259778Y0157107D01*
X0260156Y0158020D01*
X0260285Y0159000D01*
X0260156Y0159980D01*
X0259778Y0160893D01*
X0259176Y0161677D01*
X0258393Y0162278D01*
X0257723Y0162555D01*
Y0165993D01*
X0259940Y0168210D01*
X0260205Y0168607D01*
X0260298Y0169075D01*
Y0177330D01*
X0261001D01*
Y0171276D01*
X0261094Y0170807D01*
X0261359Y0170410D01*
X0265277Y0166493D01*
Y0162555D01*
X0264607Y0162278D01*
X0263824Y0161677D01*
X0263222Y0160893D01*
X0262844Y0159980D01*
X0262715Y0159000D01*
X0262844Y0158020D01*
X0263222Y0157107D01*
X0263824Y0156324D01*
X0264607Y0155722D01*
X0265520Y0155344D01*
X0266500Y0155215D01*
X0267480Y0155344D01*
X0268393Y0155722D01*
X0269177Y0156324D01*
X0269778Y0157107D01*
X0270156Y0158020D01*
X0270285Y0159000D01*
X0270156Y0159980D01*
X0269778Y0160893D01*
X0269177Y0161677D01*
X0268393Y0162278D01*
X0267723Y0162555D01*
Y0167000D01*
X0267630Y0167468D01*
X0267365Y0167865D01*
X0263448Y0171782D01*
Y0177330D01*
X0264151D01*
Y0174126D01*
X0264244Y0173658D01*
X0264509Y0173261D01*
X0274851Y0162919D01*
X0274734Y0162330D01*
X0274607Y0162278D01*
X0273823Y0161677D01*
X0273222Y0160893D01*
X0272844Y0159980D01*
X0272715Y0159000D01*
X0272844Y0158020D01*
X0273222Y0157107D01*
X0273823Y0156324D01*
X0274607Y0155722D01*
X0275520Y0155344D01*
X0276500Y0155215D01*
X0277480Y0155344D01*
X0278393Y0155722D01*
X0279176Y0156324D01*
X0279778Y0157107D01*
X0280156Y0158020D01*
X0280285Y0159000D01*
X0280156Y0159980D01*
X0279778Y0160893D01*
X0279176Y0161677D01*
X0278393Y0162278D01*
X0277724Y0162555D01*
Y0163000D01*
X0277630Y0163468D01*
X0277365Y0163865D01*
X0266598Y0174633D01*
Y0177330D01*
X0267300D01*
Y0175476D01*
X0267393Y0175008D01*
X0267658Y0174611D01*
X0282779Y0159490D01*
X0282715Y0159000D01*
X0282844Y0158020D01*
X0283222Y0157107D01*
X0283823Y0156324D01*
X0284607Y0155722D01*
X0285520Y0155344D01*
X0286500Y0155215D01*
X0287480Y0155344D01*
X0288393Y0155722D01*
X0289177Y0156324D01*
X0289778Y0157107D01*
X0290156Y0158020D01*
X0290285Y0159000D01*
X0290156Y0159980D01*
X0289778Y0160893D01*
X0289177Y0161677D01*
X0288393Y0162278D01*
X0287480Y0162656D01*
X0286500Y0162785D01*
X0285520Y0162656D01*
X0284607Y0162278D01*
X0283954Y0161776D01*
X0275054Y0170677D01*
X0275302Y0171276D01*
X0287493D01*
X0295276Y0163493D01*
Y0162555D01*
X0294607Y0162278D01*
X0293824Y0161677D01*
X0293222Y0160893D01*
X0292844Y0159980D01*
X0292715Y0159000D01*
X0292844Y0158020D01*
X0293222Y0157107D01*
X0293824Y0156324D01*
X0294607Y0155722D01*
X0295520Y0155344D01*
X0296500Y0155215D01*
X0297480Y0155344D01*
X0298393Y0155722D01*
X0299177Y0156324D01*
X0299778Y0157107D01*
X0300156Y0158020D01*
X0300285Y0159000D01*
X0300156Y0159980D01*
X0299778Y0160893D01*
X0299177Y0161677D01*
X0298393Y0162278D01*
X0297724Y0162555D01*
Y0164000D01*
X0297630Y0164468D01*
X0297365Y0164865D01*
X0288865Y0173365D01*
X0288468Y0173630D01*
X0288000Y0173723D01*
X0275007D01*
X0272897Y0175834D01*
Y0177330D01*
X0273458D01*
Y0180492D01*
X0277599D01*
X0276211Y0181880D01*
X0278159Y0183829D01*
X0279547Y0182441D01*
Y0184352D01*
X0283512D01*
X0283531Y0184348D01*
X0283770Y0184396D01*
X0285500Y0184396D01*
X0285933Y0184396D01*
X0287230D01*
X0287469Y0184348D01*
X0287707Y0184396D01*
X0289270D01*
Y0187604D01*
X0289270Y0187604D01*
X0289270D01*
X0289270Y0187604D01*
X0289430Y0188138D01*
X0292079D01*
X0290691Y0189526D01*
X0291665Y0190500D01*
X0290691Y0191474D01*
X0292079Y0192862D01*
X0289183D01*
Y0195000D01*
X0289183Y0195000D01*
X0289104Y0195397D01*
Y0196567D01*
X0289104Y0196833D01*
X0289384Y0197317D01*
X0298586D01*
X0298728Y0196606D01*
X0299191Y0195912D01*
X0299884Y0195449D01*
X0300702Y0195286D01*
X0313498D01*
X0314316Y0195449D01*
X0315009Y0195912D01*
X0315360Y0196438D01*
X0315961Y0196256D01*
Y0193215D01*
X0299797D01*
X0304137Y0188874D01*
X0302189Y0186926D01*
X0297848Y0191266D01*
Y0182585D01*
Y0178802D01*
X0302189Y0183142D01*
X0304137Y0181193D01*
X0299797Y0176853D01*
X0315961D01*
Y0149539D01*
X0157039D01*
Y0248461D01*
X0315961D01*
Y0220947D01*
D02*
G37*
G36*
X0273432Y0215716D02*
X0273432D01*
Y0212566D01*
Y0209417D01*
Y0206267D01*
Y0203117D01*
Y0199968D01*
Y0196818D01*
Y0193668D01*
Y0191516D01*
X0272854D01*
Y0186791D01*
X0273612D01*
Y0185216D01*
X0272854D01*
Y0182867D01*
X0235268D01*
Y0187369D01*
Y0190519D01*
Y0193668D01*
Y0196240D01*
X0235846D01*
Y0200290D01*
X0235857Y0200292D01*
X0236369Y0200635D01*
X0237993Y0202258D01*
X0238335Y0202770D01*
X0238456Y0203375D01*
Y0212539D01*
X0238985Y0212822D01*
X0239073Y0212763D01*
X0239951Y0212589D01*
X0239941Y0212539D01*
Y0207500D01*
X0239957Y0207418D01*
X0243533Y0210994D01*
X0247110Y0214570D01*
X0247028Y0214587D01*
X0244254D01*
X0244025Y0215141D01*
X0244192Y0215308D01*
X0244457Y0215705D01*
X0244550Y0216173D01*
Y0217487D01*
X0247264D01*
Y0216910D01*
X0251988D01*
Y0217487D01*
X0273432D01*
Y0215716D01*
D02*
G37*
G36*
X0199505Y0212700D02*
X0199855Y0212174D01*
X0199857Y0212174D01*
X0199986Y0211368D01*
X0199909Y0211268D01*
X0198562D01*
Y0205732D01*
Y0200232D01*
X0198684D01*
Y0198315D01*
X0192655D01*
X0192211Y0198458D01*
X0192080Y0198841D01*
Y0199653D01*
X0195066D01*
X0193088Y0201632D01*
X0195036Y0203581D01*
X0197015Y0201602D01*
Y0205153D01*
Y0209898D01*
X0195036Y0207919D01*
X0193088Y0209868D01*
X0195066Y0211846D01*
X0193365D01*
X0193136Y0212401D01*
X0193655Y0212920D01*
X0199461D01*
X0199505Y0212700D01*
D02*
G37*
G36*
X0187500Y0188000D02*
X0186500Y0187000D01*
X0176500D01*
X0175500Y0188000D01*
Y0191500D01*
X0178250D01*
X0179500Y0190000D01*
X0183500D01*
X0184750Y0191500D01*
X0187500D01*
Y0188000D01*
D02*
G37*
G36*
Y0199000D02*
Y0198906D01*
X0187563Y0198843D01*
Y0195343D01*
X0184813D01*
X0183563Y0196843D01*
X0179563D01*
X0178313Y0195343D01*
X0175563D01*
Y0195500D01*
X0175500D01*
Y0199000D01*
X0176500Y0200000D01*
X0186500D01*
X0187500Y0199000D01*
D02*
G37*
%LPC*%
G36*
X0166500Y0193416D02*
X0165357Y0193265D01*
X0164527Y0192921D01*
X0166500Y0190949D01*
X0168473Y0192921D01*
X0167643Y0193265D01*
X0166500Y0193416D01*
D02*
G37*
G36*
X0246988Y0194862D02*
X0241831D01*
X0244409Y0192283D01*
X0246988Y0194862D01*
D02*
G37*
G36*
X0266772D02*
X0261614D01*
X0264193Y0192283D01*
X0266772Y0194862D01*
D02*
G37*
G36*
X0294028Y0190913D02*
X0293614Y0190500D01*
X0294028Y0190086D01*
Y0190913D01*
D02*
G37*
G36*
X0258878Y0192913D02*
X0256299Y0190335D01*
X0258878Y0187756D01*
Y0192913D01*
D02*
G37*
G36*
X0268721D02*
X0266142Y0190335D01*
X0268721Y0187756D01*
Y0192913D01*
D02*
G37*
G36*
X0306500Y0243368D02*
X0305369Y0243219D01*
X0304563Y0242885D01*
X0306500Y0240949D01*
X0308437Y0242885D01*
X0307630Y0243219D01*
X0306500Y0243368D01*
D02*
G37*
G36*
X0256929Y0194862D02*
X0251772D01*
X0254350Y0192283D01*
X0256929Y0194862D01*
D02*
G37*
G36*
X0239980Y0202756D02*
Y0197598D01*
X0242559Y0200177D01*
X0239980Y0202756D01*
D02*
G37*
G36*
X0249823D02*
Y0197598D01*
X0252402Y0200177D01*
X0249823Y0202756D01*
D02*
G37*
G36*
X0259665D02*
Y0197598D01*
X0262244Y0200177D01*
X0259665Y0202756D01*
D02*
G37*
G36*
X0264193Y0198228D02*
X0261614Y0195650D01*
X0266772D01*
X0264193Y0198228D01*
D02*
G37*
G36*
X0296500Y0243368D02*
X0295370Y0243219D01*
X0294563Y0242885D01*
X0296500Y0240949D01*
X0298437Y0242885D01*
X0297631Y0243219D01*
X0296500Y0243368D01*
D02*
G37*
G36*
X0244508Y0198228D02*
X0241929Y0195650D01*
X0247087D01*
X0244508Y0198228D01*
D02*
G37*
G36*
X0254350D02*
X0251772Y0195650D01*
X0256929D01*
X0254350Y0198228D01*
D02*
G37*
G36*
X0248937Y0192913D02*
X0246358Y0190335D01*
X0248937Y0187756D01*
Y0192913D01*
D02*
G37*
G36*
X0196938Y0183394D02*
X0196544Y0183000D01*
X0196938Y0182606D01*
X0197332Y0183000D01*
X0196938Y0183394D01*
D02*
G37*
G36*
X0166500Y0187051D02*
X0164527Y0185079D01*
X0165357Y0184735D01*
X0166500Y0184584D01*
X0167643Y0184735D01*
X0168473Y0185079D01*
X0166500Y0187051D01*
D02*
G37*
G36*
X0197942Y0186346D02*
X0195934D01*
X0196938Y0185342D01*
X0197942Y0186346D01*
D02*
G37*
G36*
X0193985Y0184398D02*
Y0181602D01*
X0195383Y0183000D01*
X0193985Y0184398D01*
D02*
G37*
G36*
X0310253Y0162753D02*
X0302747D01*
Y0155247D01*
X0310253D01*
Y0162753D01*
D02*
G37*
G36*
X0196938Y0180658D02*
X0195934Y0179654D01*
X0197942D01*
X0196938Y0180658D01*
D02*
G37*
G36*
X0199891Y0184398D02*
X0198493Y0183000D01*
X0199891Y0181602D01*
Y0184398D01*
D02*
G37*
G36*
X0244409Y0188386D02*
X0241831Y0185807D01*
X0246988D01*
X0244409Y0188386D01*
D02*
G37*
G36*
X0239882Y0192913D02*
Y0187756D01*
X0242461Y0190335D01*
X0239882Y0192913D01*
D02*
G37*
G36*
X0249823D02*
Y0187756D01*
X0252402Y0190335D01*
X0249823Y0192913D01*
D02*
G37*
G36*
X0259665D02*
Y0187756D01*
X0262244Y0190335D01*
X0259665Y0192913D01*
D02*
G37*
G36*
X0162578Y0190973D02*
X0162235Y0190143D01*
X0162084Y0189000D01*
X0162235Y0187857D01*
X0162578Y0187027D01*
X0164551Y0189000D01*
X0162578Y0190973D01*
D02*
G37*
G36*
X0254350Y0188386D02*
X0251772Y0185807D01*
X0256929D01*
X0254350Y0188386D01*
D02*
G37*
G36*
X0264193D02*
X0261614Y0185807D01*
X0266772D01*
X0264193Y0188386D01*
D02*
G37*
G36*
X0170422Y0190973D02*
X0168449Y0189000D01*
X0170422Y0187027D01*
X0170765Y0187857D01*
X0170916Y0189000D01*
X0170765Y0190143D01*
X0170422Y0190973D01*
D02*
G37*
G36*
X0249035Y0202756D02*
X0246457Y0200177D01*
X0249035Y0197598D01*
Y0202756D01*
D02*
G37*
G36*
X0182500Y0211416D02*
X0181357Y0211265D01*
X0180527Y0210922D01*
X0182500Y0208949D01*
X0184473Y0210922D01*
X0183643Y0211265D01*
X0182500Y0211416D01*
D02*
G37*
G36*
X0166500Y0213416D02*
X0165357Y0213265D01*
X0164527Y0212922D01*
X0166500Y0210949D01*
X0168473Y0212922D01*
X0167643Y0213265D01*
X0166500Y0213416D01*
D02*
G37*
G36*
X0256929Y0214547D02*
X0251772D01*
X0254350Y0211968D01*
X0256929Y0214547D01*
D02*
G37*
G36*
X0268721Y0212598D02*
X0266142Y0210020D01*
X0268721Y0207441D01*
Y0212598D01*
D02*
G37*
G36*
X0249823D02*
Y0207441D01*
X0252402Y0210020D01*
X0249823Y0212598D01*
D02*
G37*
G36*
X0258878Y0212598D02*
X0256299Y0210020D01*
X0258878Y0207441D01*
Y0212598D01*
D02*
G37*
G36*
X0259665Y0212598D02*
Y0207441D01*
X0262244Y0210020D01*
X0259665Y0212598D01*
D02*
G37*
G36*
X0266772Y0214547D02*
X0261614D01*
X0264193Y0211968D01*
X0266772Y0214547D01*
D02*
G37*
G36*
X0206500Y0242785D02*
X0205520Y0242656D01*
X0204607Y0242278D01*
X0203823Y0241676D01*
X0203222Y0240893D01*
X0202844Y0239980D01*
X0202715Y0239000D01*
X0202844Y0238020D01*
X0203222Y0237107D01*
X0203823Y0236323D01*
X0204607Y0235722D01*
X0205520Y0235344D01*
X0206500Y0235215D01*
X0207480Y0235344D01*
X0208393Y0235722D01*
X0209176Y0236323D01*
X0209778Y0237107D01*
X0210156Y0238020D01*
X0210285Y0239000D01*
X0210156Y0239980D01*
X0209778Y0240893D01*
X0209176Y0241676D01*
X0208393Y0242278D01*
X0207480Y0242656D01*
X0206500Y0242785D01*
D02*
G37*
G36*
X0216500D02*
X0215520Y0242656D01*
X0214607Y0242278D01*
X0213824Y0241676D01*
X0213222Y0240893D01*
X0212844Y0239980D01*
X0212715Y0239000D01*
X0212844Y0238020D01*
X0213222Y0237107D01*
X0213824Y0236323D01*
X0214607Y0235722D01*
X0215520Y0235344D01*
X0216500Y0235215D01*
X0217480Y0235344D01*
X0218393Y0235722D01*
X0219177Y0236323D01*
X0219778Y0237107D01*
X0220156Y0238020D01*
X0220285Y0239000D01*
X0220156Y0239980D01*
X0219778Y0240893D01*
X0219177Y0241676D01*
X0218393Y0242278D01*
X0217480Y0242656D01*
X0216500Y0242785D01*
D02*
G37*
G36*
X0292615Y0240937D02*
X0292281Y0240130D01*
X0292132Y0239000D01*
X0292281Y0237870D01*
X0292615Y0237063D01*
X0294551Y0239000D01*
X0292615Y0240937D01*
D02*
G37*
G36*
X0306500Y0237051D02*
X0304563Y0235115D01*
X0305369Y0234781D01*
X0306500Y0234632D01*
X0307630Y0234781D01*
X0308437Y0235115D01*
X0306500Y0237051D01*
D02*
G37*
G36*
X0300385Y0240937D02*
X0298449Y0239000D01*
X0300385Y0237063D01*
X0300719Y0237870D01*
X0300868Y0239000D01*
X0300719Y0240130D01*
X0300385Y0240937D01*
D02*
G37*
G36*
X0302615Y0240937D02*
X0302281Y0240130D01*
X0302132Y0239000D01*
X0302281Y0237870D01*
X0302615Y0237063D01*
X0304551Y0239000D01*
X0302615Y0240937D01*
D02*
G37*
G36*
X0296500Y0237051D02*
X0294563Y0235115D01*
X0295370Y0234781D01*
X0296500Y0234632D01*
X0297631Y0234781D01*
X0298437Y0235115D01*
X0296500Y0237051D01*
D02*
G37*
G36*
X0249058Y0212621D02*
X0246457Y0210020D01*
X0249058Y0207418D01*
X0249075Y0207500D01*
Y0212539D01*
X0249058Y0212621D01*
D02*
G37*
G36*
X0266772Y0204705D02*
X0261614D01*
X0264193Y0202126D01*
X0266772Y0204705D01*
D02*
G37*
G36*
X0256929D02*
X0251772D01*
X0254350Y0202126D01*
X0256929Y0204705D01*
D02*
G37*
G36*
X0182500Y0205051D02*
X0180527Y0203079D01*
X0181357Y0202735D01*
X0182500Y0202584D01*
X0183643Y0202735D01*
X0184473Y0203079D01*
X0182500Y0205051D01*
D02*
G37*
G36*
X0247087Y0204705D02*
X0241929D01*
X0244508Y0202126D01*
X0247087Y0204705D01*
D02*
G37*
G36*
X0258878Y0202756D02*
X0256299Y0200177D01*
X0258878Y0197598D01*
Y0202756D01*
D02*
G37*
G36*
X0268721D02*
X0266142Y0200177D01*
X0268721Y0197598D01*
Y0202756D01*
D02*
G37*
G36*
X0310385Y0240937D02*
X0308449Y0239000D01*
X0310385Y0237063D01*
X0310719Y0237870D01*
X0310868Y0239000D01*
X0310719Y0240130D01*
X0310385Y0240937D01*
D02*
G37*
G36*
X0166500Y0207051D02*
X0164527Y0205079D01*
X0165357Y0204735D01*
X0166500Y0204584D01*
X0167643Y0204735D01*
X0168473Y0205079D01*
X0166500Y0207051D01*
D02*
G37*
G36*
X0264193Y0208071D02*
X0261614Y0205492D01*
X0266772D01*
X0264193Y0208071D01*
D02*
G37*
G36*
X0170422Y0210973D02*
X0168449Y0209000D01*
X0170422Y0207027D01*
X0170765Y0207857D01*
X0170916Y0209000D01*
X0170765Y0210143D01*
X0170422Y0210973D01*
D02*
G37*
G36*
X0162578Y0210973D02*
X0162235Y0210143D01*
X0162084Y0209000D01*
X0162235Y0207857D01*
X0162578Y0207027D01*
X0164551Y0209000D01*
X0162578Y0210973D01*
D02*
G37*
G36*
X0254350Y0208071D02*
X0251771Y0205492D01*
X0256929D01*
X0254350Y0208071D01*
D02*
G37*
G36*
X0178578Y0208973D02*
X0178235Y0208143D01*
X0178084Y0207000D01*
X0178235Y0205857D01*
X0178578Y0205027D01*
X0180551Y0207000D01*
X0178578Y0208973D01*
D02*
G37*
G36*
X0186422D02*
X0184449Y0207000D01*
X0186422Y0205027D01*
X0186765Y0205857D01*
X0186916Y0207000D01*
X0186765Y0208143D01*
X0186422Y0208973D01*
D02*
G37*
G36*
X0244508Y0208071D02*
X0241906Y0205469D01*
X0241988Y0205453D01*
X0247028D01*
X0247110Y0205469D01*
X0244508Y0208071D01*
D02*
G37*
%LPD*%
D10*
X0252969Y0228500D02*
D03*
X0249031D02*
D03*
X0287469Y0186000D02*
D03*
X0283531D02*
D03*
X0287531Y0190500D02*
D03*
X0291469D02*
D03*
X0287531Y0203500D02*
D03*
X0291469D02*
D03*
D11*
X0243400Y0227700D02*
D03*
D12*
Y0229300D02*
D03*
X0239600Y0227800D02*
D03*
D13*
X0240100Y0228500D02*
D03*
D14*
X0239600Y0229200D02*
D03*
D15*
X0230350Y0228500D02*
D03*
D16*
X0233500D02*
D03*
D17*
X0200937Y0203000D02*
D03*
X0194062D02*
D03*
X0200937Y0208500D02*
D03*
X0194062D02*
D03*
X0190063Y0183000D02*
D03*
X0196938D02*
D03*
X0221937Y0186000D02*
D03*
X0215062D02*
D03*
D18*
X0201000Y0217650D02*
D03*
D19*
Y0214500D02*
D03*
D20*
X0182000Y0188500D02*
D03*
X0181500Y0198500D02*
D03*
D21*
X0191079Y0196937D02*
D03*
Y0194968D02*
D03*
X0191079Y0193000D02*
D03*
Y0191032D02*
D03*
Y0189063D02*
D03*
X0200921D02*
D03*
Y0191032D02*
D03*
Y0193000D02*
D03*
X0200921Y0194968D02*
D03*
Y0196937D02*
D03*
D22*
X0196000Y0193000D02*
D03*
D23*
X0206500Y0189063D02*
D03*
Y0195938D02*
D03*
D24*
X0215750Y0191500D02*
D03*
X0221250D02*
D03*
X0221250Y0196500D02*
D03*
X0215750D02*
D03*
X0221250Y0201500D02*
D03*
X0215750D02*
D03*
X0215750Y0206500D02*
D03*
X0221250D02*
D03*
X0221250Y0211500D02*
D03*
X0215750D02*
D03*
X0292250Y0211000D02*
D03*
X0286750D02*
D03*
Y0216000D02*
D03*
X0292250D02*
D03*
D25*
X0264193Y0190335D02*
D03*
X0254350D02*
D03*
X0244409D02*
D03*
X0264193Y0200177D02*
D03*
X0254350D02*
D03*
X0244508D02*
D03*
X0264193Y0210020D02*
D03*
X0254350Y0210020D02*
D03*
D26*
X0244508Y0210020D02*
D03*
D27*
X0237028Y0220256D02*
D03*
X0240177D02*
D03*
X0243327D02*
D03*
X0246476D02*
D03*
X0249626D02*
D03*
X0252776D02*
D03*
X0255925D02*
D03*
X0259075D02*
D03*
X0262224D02*
D03*
X0265374D02*
D03*
X0268524D02*
D03*
X0271673D02*
D03*
Y0180098D02*
D03*
X0268524D02*
D03*
X0265374D02*
D03*
X0262224D02*
D03*
X0259075D02*
D03*
X0255925D02*
D03*
X0252776D02*
D03*
X0249626D02*
D03*
X0246476D02*
D03*
X0243327D02*
D03*
X0240177D02*
D03*
X0237028D02*
D03*
D28*
X0276201Y0217500D02*
D03*
X0276201Y0214350D02*
D03*
Y0211201D02*
D03*
Y0208051D02*
D03*
Y0204902D02*
D03*
Y0201752D02*
D03*
Y0198602D02*
D03*
Y0195453D02*
D03*
Y0192303D02*
D03*
Y0189154D02*
D03*
Y0186004D02*
D03*
Y0182854D02*
D03*
X0232500D02*
D03*
Y0186004D02*
D03*
Y0189154D02*
D03*
Y0192303D02*
D03*
Y0195453D02*
D03*
Y0198602D02*
D03*
Y0201752D02*
D03*
Y0204902D02*
D03*
Y0208051D02*
D03*
Y0211201D02*
D03*
Y0214350D02*
D03*
Y0217500D02*
D03*
D29*
X0287500Y0198969D02*
D03*
Y0195031D02*
D03*
D30*
X0307100Y0198900D02*
D03*
D31*
Y0209900D02*
D03*
Y0187900D02*
D03*
Y0215632D02*
D03*
Y0182168D02*
D03*
D32*
X0240177Y0220256D02*
Y0228423D01*
X0233500Y0228500D02*
X0240100D01*
X0176500Y0159000D02*
Y0163000D01*
X0178500Y0165000D01*
X0190000D01*
X0205000Y0180000D01*
Y0183500D01*
X0186500Y0159000D02*
X0210000Y0182500D01*
X0160000Y0205500D02*
X0166500Y0199000D01*
X0160000Y0205500D02*
Y0241500D01*
X0163000Y0244500D01*
X0181000D01*
X0186500Y0239000D01*
X0196500Y0234500D02*
Y0239000D01*
X0196000Y0234000D02*
X0196500Y0234500D01*
X0165500Y0234000D02*
X0196000D01*
X0162000Y0230500D02*
X0165500Y0234000D01*
X0162000Y0223500D02*
Y0230500D01*
Y0223500D02*
X0166500Y0219000D01*
X0226000Y0232000D02*
X0231000Y0237000D01*
X0169500Y0232000D02*
X0226000D01*
X0166500Y0229000D02*
X0169500Y0232000D01*
X0262347Y0243153D02*
X0266500Y0239000D01*
X0234153Y0243153D02*
X0262347D01*
X0231000Y0240000D02*
X0234153Y0243153D01*
X0231000Y0237000D02*
Y0240000D01*
X0286500Y0216250D02*
X0286750Y0216000D01*
X0286500Y0216250D02*
Y0239000D01*
X0296500Y0159000D02*
Y0164000D01*
X0288000Y0172500D02*
X0296500Y0164000D01*
X0274500Y0172500D02*
X0288000D01*
X0271673Y0175327D02*
X0274500Y0172500D01*
X0271673Y0175327D02*
Y0180098D01*
X0285000Y0159000D02*
X0286500D01*
X0268524Y0175476D02*
X0285000Y0159000D01*
X0268524Y0175476D02*
Y0180098D01*
X0276500Y0159000D02*
Y0163000D01*
X0265374Y0174126D02*
X0276500Y0163000D01*
X0265374Y0174126D02*
Y0180098D01*
X0266500Y0159000D02*
Y0167000D01*
X0262224Y0171276D02*
X0266500Y0167000D01*
X0262224Y0171276D02*
Y0180098D01*
X0256500Y0159000D02*
Y0166500D01*
X0259075Y0169075D01*
Y0180098D01*
X0246500Y0159000D02*
Y0165500D01*
X0255925Y0174925D01*
Y0180098D01*
X0236500Y0159000D02*
Y0165400D01*
X0241000Y0169900D01*
X0246900D01*
X0252776Y0175776D01*
Y0180098D01*
X0229000Y0171500D02*
X0245000D01*
X0226500Y0169000D02*
X0229000Y0171500D01*
X0226500Y0159000D02*
Y0169000D01*
X0245000Y0171500D02*
X0249626Y0176126D01*
Y0180098D01*
X0216500Y0159000D02*
Y0171500D01*
X0218300Y0173300D01*
X0244300D01*
X0246476Y0175476D01*
Y0180098D01*
X0206500Y0159000D02*
Y0171237D01*
X0210163Y0174900D01*
X0241900D01*
X0243327Y0176327D01*
Y0180098D01*
X0196500Y0159000D02*
Y0163500D01*
X0209500Y0176500D01*
X0239000D01*
X0240177Y0177677D01*
Y0180098D01*
X0232350Y0214500D02*
X0232500Y0214350D01*
X0230000Y0214500D02*
X0232350D01*
X0225500Y0219000D02*
X0230000Y0214500D01*
X0220000Y0219000D02*
X0225500D01*
Y0222000D02*
X0226500Y0221000D01*
X0231500D01*
X0232500Y0220000D01*
Y0217500D02*
Y0220000D01*
X0240000Y0215000D02*
X0242154D01*
X0243327Y0216173D01*
Y0220256D01*
X0246476Y0224976D02*
X0246500Y0225000D01*
X0246476Y0220256D02*
Y0224976D01*
X0240100Y0228500D02*
X0240177Y0228423D01*
X0243327Y0227627D02*
X0243400Y0227700D01*
X0243327Y0220256D02*
Y0227627D01*
X0252776Y0228307D02*
X0252969Y0228500D01*
X0252776Y0220256D02*
Y0228307D01*
X0255925Y0224925D02*
X0256500Y0225500D01*
X0256000Y0226000D02*
X0256500Y0225500D01*
X0255925Y0220256D02*
Y0224925D01*
X0260000Y0227500D02*
Y0228000D01*
X0259075Y0226575D02*
X0260000Y0227500D01*
X0259075Y0220256D02*
Y0226575D01*
X0262500Y0225000D02*
X0263000D01*
X0262224Y0224724D02*
X0262500Y0225000D01*
X0262224Y0220256D02*
Y0224724D01*
X0265374Y0220256D02*
X0265940Y0220821D01*
Y0228025D01*
X0268524Y0225024D02*
X0269000Y0225500D01*
X0268524Y0220256D02*
Y0225024D01*
X0271673Y0220256D02*
X0271856Y0220439D01*
Y0226856D01*
X0267912Y0230800D02*
X0271856Y0226856D01*
X0254937Y0230800D02*
X0267912D01*
X0250890Y0234847D02*
X0254937Y0230800D01*
X0243153Y0234847D02*
X0250890D01*
X0239000Y0239000D02*
X0243153Y0234847D01*
X0236500Y0239000D02*
X0239000D01*
X0246500D02*
X0248000Y0237500D01*
X0250500D01*
X0255600Y0232400D01*
X0268575D01*
X0276201Y0224774D01*
Y0217500D02*
Y0224774D01*
X0276201Y0214350D02*
X0279350D01*
X0280400Y0215400D01*
Y0222837D01*
X0269237Y0234000D02*
X0280400Y0222837D01*
X0261500Y0234000D02*
X0269237D01*
X0256500Y0239000D02*
X0261500Y0234000D01*
X0282000Y0213500D02*
Y0223500D01*
X0266500Y0239000D02*
X0282000Y0223500D01*
X0276500Y0231500D02*
X0283600Y0224400D01*
Y0212100D02*
Y0224400D01*
X0279551Y0208051D02*
X0283600Y0212100D01*
X0279701Y0211201D02*
X0282000Y0213500D01*
X0286750Y0214500D02*
Y0216000D01*
Y0214500D02*
X0287000Y0214250D01*
Y0210000D02*
Y0214250D01*
X0281902Y0204902D02*
X0287000Y0210000D01*
X0276201Y0211201D02*
X0279701D01*
X0276201Y0204902D02*
X0281902D01*
X0276201Y0208051D02*
X0279551D01*
X0276500Y0231500D02*
Y0239000D01*
D33*
X0215750Y0191500D02*
Y0206500D01*
X0227500Y0198500D02*
X0227602Y0198602D01*
X0232500D01*
X0254350D01*
X0211500Y0206500D02*
X0215750D01*
X0211000Y0206000D02*
X0211500Y0206500D01*
X0206500Y0198000D02*
X0207500Y0199000D01*
X0206500Y0195938D02*
Y0198000D01*
X0173000Y0209000D02*
X0180500D01*
X0166500D02*
X0173000D01*
Y0193000D02*
Y0209000D01*
X0169000Y0189000D02*
X0173000Y0193000D01*
X0166500Y0189000D02*
X0169000D01*
X0296500Y0239000D02*
X0306500D01*
X0304500Y0211000D02*
X0305000Y0210500D01*
X0292250Y0211000D02*
X0304500D01*
X0304768Y0216000D02*
X0305000Y0216232D01*
X0292250Y0216000D02*
X0304768D01*
X0305000Y0216232D02*
X0306500Y0217732D01*
Y0239000D01*
X0272000Y0189154D02*
X0276201D01*
X0265374D02*
X0272000D01*
Y0185000D02*
Y0189154D01*
Y0185000D02*
X0274146Y0182854D01*
X0276201D01*
X0264193Y0190335D02*
X0265374Y0189154D01*
X0304913Y0182854D02*
X0305000Y0182768D01*
X0276201Y0182854D02*
X0304913D01*
X0215750Y0206500D02*
Y0211500D01*
X0228299Y0211201D02*
X0232500D01*
X0228000Y0211500D02*
X0228299Y0211201D01*
X0228000Y0211500D02*
Y0213000D01*
X0225500Y0215500D02*
X0228000Y0213000D01*
X0217000Y0215500D02*
X0225500D01*
X0215750Y0214250D02*
X0217000Y0215500D01*
X0215750Y0211500D02*
Y0214250D01*
Y0211500D02*
X0215750Y0211500D01*
X0254350Y0210020D02*
X0264193D01*
X0244508D02*
X0254350D01*
X0254350Y0198602D02*
Y0210020D01*
X0254350Y0210020D02*
X0254350Y0210020D01*
X0249626Y0214744D02*
X0254350Y0210020D01*
X0249626Y0214744D02*
Y0220256D01*
X0254350Y0190335D02*
X0264193D01*
X0244409D02*
X0254350D01*
X0254350Y0198602D02*
X0262618D01*
X0254350Y0190335D02*
Y0198602D01*
Y0190335D02*
X0254350Y0190335D01*
X0262618Y0198602D02*
X0264193Y0200177D01*
X0249031Y0228500D02*
X0249626Y0227906D01*
Y0220256D02*
Y0227906D01*
X0180500Y0209000D02*
X0182500Y0207000D01*
X0205531Y0194968D02*
X0206500Y0195938D01*
X0200921Y0194968D02*
X0205531D01*
X0196938D02*
X0200921D01*
X0196197D02*
X0196938D01*
X0196000Y0195165D02*
X0196197Y0194968D01*
X0191079Y0193000D02*
X0196000D01*
D34*
X0166500Y0159000D02*
Y0179000D01*
X0196938Y0183000D02*
Y0194968D01*
Y0198062D01*
X0194062Y0203000D02*
Y0208500D01*
Y0200938D02*
Y0203000D01*
Y0200938D02*
X0196938Y0198062D01*
X0190000Y0188500D02*
X0190063Y0188437D01*
Y0183000D02*
Y0188437D01*
X0186063Y0179000D02*
X0190063Y0183000D01*
X0166500Y0179000D02*
X0186063D01*
X0298468Y0210500D02*
X0305000D01*
X0291469Y0203500D02*
X0298468Y0210500D01*
X0303000Y0190500D02*
X0305000Y0188500D01*
X0291469Y0190500D02*
X0303000D01*
X0304468Y0198969D02*
X0305000Y0199500D01*
X0287500Y0198969D02*
X0304468D01*
X0287500Y0203468D02*
X0287531Y0203500D01*
X0287500Y0198969D02*
Y0203468D01*
Y0195031D02*
X0287531Y0195000D01*
Y0190500D02*
Y0195000D01*
X0287469Y0190437D02*
X0287531Y0190500D01*
X0287469Y0186000D02*
Y0190437D01*
X0283528Y0186004D02*
X0283531Y0186000D01*
X0276201Y0186004D02*
X0283528D01*
D35*
X0185500Y0217000D02*
X0190500Y0212000D01*
X0182500Y0217000D02*
X0185500D01*
X0190000Y0198000D02*
X0190500Y0198500D01*
X0190000Y0197500D02*
Y0198000D01*
X0190500Y0198500D02*
Y0212000D01*
X0193000Y0214500D01*
X0201000D01*
Y0213437D02*
X0203437Y0211000D01*
X0201000Y0213437D02*
Y0214500D01*
X0200937Y0208500D02*
X0203437Y0211000D01*
X0211500D01*
X0225000D02*
X0226051Y0209949D01*
Y0208051D02*
Y0209949D01*
X0200937Y0203000D02*
Y0208500D01*
X0211500Y0186000D02*
X0215062D01*
X0211000Y0186500D02*
X0211500Y0186000D01*
X0211000Y0186500D02*
Y0201500D01*
X0209500Y0203000D02*
X0211000Y0201500D01*
X0200937Y0203000D02*
X0209500D01*
X0221250Y0186687D02*
X0221937Y0186000D01*
X0221250Y0186687D02*
Y0191500D01*
Y0206500D02*
X0221250Y0206500D01*
Y0211500D01*
Y0196500D02*
Y0201500D01*
Y0191500D02*
Y0196500D01*
X0221250Y0191500D02*
X0221250Y0191500D01*
Y0201500D02*
X0221502Y0201752D01*
X0232500D01*
X0224500Y0206500D02*
X0226098Y0204902D01*
X0232500D01*
X0221250Y0206500D02*
X0224500D01*
X0226051Y0208051D01*
X0232500D01*
Y0201752D02*
X0235252D01*
X0236875Y0203375D01*
Y0220104D01*
X0237028Y0220256D01*
D36*
X0203468Y0191032D02*
X0205437Y0189063D01*
X0204000Y0189063D02*
X0204000Y0189063D01*
X0205437D01*
X0203468Y0191032D02*
X0203500Y0191063D01*
Y0192500D01*
X0203000Y0193000D02*
X0203500Y0192500D01*
X0200921Y0193000D02*
X0203000D01*
X0200921Y0189063D02*
X0204000D01*
X0200921Y0191032D02*
X0203468D01*
X0186500Y0190500D02*
X0187031Y0191032D01*
X0191079D01*
X0186500Y0196500D02*
X0188031Y0194968D01*
X0191079D01*
D37*
X0201000Y0199250D02*
D03*
D38*
X0166500Y0159000D02*
D03*
X0176500D02*
D03*
X0186500D02*
D03*
X0196500D02*
D03*
X0206500D02*
D03*
X0216500D02*
D03*
X0226500D02*
D03*
X0236500D02*
D03*
X0246500D02*
D03*
X0256500D02*
D03*
X0266500D02*
D03*
X0276500D02*
D03*
X0286500D02*
D03*
X0296500D02*
D03*
X0306500Y0239000D02*
D03*
X0296500D02*
D03*
X0286500D02*
D03*
X0276500D02*
D03*
X0266500D02*
D03*
X0256500D02*
D03*
X0246500D02*
D03*
X0236500D02*
D03*
X0226500D02*
D03*
X0216500D02*
D03*
X0206500D02*
D03*
X0196500D02*
D03*
X0186500D02*
D03*
X0176500D02*
D03*
D39*
X0306500Y0159000D02*
D03*
X0166500Y0239000D02*
D03*
D40*
X0182500Y0217000D02*
D03*
X0166500Y0199000D02*
D03*
Y0179000D02*
D03*
D41*
X0182500Y0207000D02*
D03*
X0166500Y0229000D02*
D03*
Y0209000D02*
D03*
Y0219000D02*
D03*
Y0189000D02*
D03*
D42*
X0196000Y0195165D02*
D03*
Y0190835D02*
D03*
X0227500Y0198500D02*
D03*
X0281902Y0204902D02*
D03*
X0211000Y0206000D02*
D03*
X0207500Y0199000D02*
D03*
X0205000Y0183500D02*
D03*
X0210000Y0182500D02*
D03*
X0220000Y0219000D02*
D03*
X0225500Y0222000D02*
D03*
X0211500Y0211000D02*
D03*
X0225000D02*
D03*
X0240000Y0215000D02*
D03*
X0246500Y0225000D02*
D03*
X0256000Y0226000D02*
D03*
X0260000Y0228000D02*
D03*
X0263000Y0225000D02*
D03*
X0265940Y0228025D02*
D03*
X0269000Y0225500D02*
D03*
M02*
