G04 Layer_Physical_Order=2*
G04 Layer_Color=16711680*
%FSAX25Y25*%
%MOIN*%
G70*
G01*
G75*
%ADD31R,0.15748X0.07874*%
%ADD32C,0.00800*%
%ADD33C,0.01200*%
%ADD35C,0.01500*%
%ADD38C,0.05906*%
%ADD39R,0.05906X0.05906*%
%ADD40R,0.06000X0.06000*%
%ADD41C,0.06000*%
%ADD42C,0.03150*%
G36*
X0315961Y0220947D02*
X0299797D01*
X0304137Y0216607D01*
X0302189Y0214658D01*
X0297848Y0218999D01*
Y0210317D01*
Y0206534D01*
X0302189Y0210874D01*
X0304137Y0208926D01*
X0299797Y0204585D01*
X0315961D01*
Y0193215D01*
X0299797D01*
X0304137Y0188874D01*
X0302189Y0186926D01*
X0297848Y0191266D01*
Y0182585D01*
Y0178802D01*
X0302189Y0183142D01*
X0304137Y0181193D01*
X0299797Y0176853D01*
X0315961D01*
Y0149539D01*
X0157039D01*
Y0248461D01*
X0315961D01*
Y0220947D01*
D02*
G37*
%LPC*%
G36*
X0170422Y0190973D02*
X0168449Y0189000D01*
X0170422Y0187027D01*
X0170765Y0187857D01*
X0170916Y0189000D01*
X0170765Y0190143D01*
X0170422Y0190973D01*
D02*
G37*
G36*
X0162578Y0190973D02*
X0162235Y0190143D01*
X0162084Y0189000D01*
X0162235Y0187857D01*
X0162578Y0187027D01*
X0164551Y0189000D01*
X0162578Y0190973D01*
D02*
G37*
G36*
X0196000Y0188886D02*
X0195118Y0188004D01*
X0195229Y0187958D01*
X0196000Y0187856D01*
X0196771Y0187958D01*
X0196882Y0188004D01*
X0196000Y0188886D01*
D02*
G37*
G36*
X0296500Y0162785D02*
X0295520Y0162656D01*
X0294607Y0162278D01*
X0293824Y0161677D01*
X0293222Y0160893D01*
X0292844Y0159980D01*
X0292715Y0159000D01*
X0292844Y0158020D01*
X0293222Y0157107D01*
X0293824Y0156324D01*
X0294607Y0155722D01*
X0295520Y0155344D01*
X0296500Y0155215D01*
X0297480Y0155344D01*
X0298393Y0155722D01*
X0299177Y0156324D01*
X0299778Y0157107D01*
X0300156Y0158020D01*
X0300285Y0159000D01*
X0300156Y0159980D01*
X0299778Y0160893D01*
X0299177Y0161677D01*
X0298393Y0162278D01*
X0297480Y0162656D01*
X0296500Y0162785D01*
D02*
G37*
G36*
X0170300Y0182800D02*
X0162700D01*
Y0175200D01*
X0170300D01*
Y0182800D01*
D02*
G37*
G36*
X0166500Y0187051D02*
X0164527Y0185079D01*
X0165357Y0184735D01*
X0166500Y0184584D01*
X0167643Y0184735D01*
X0168473Y0185079D01*
X0166500Y0187051D01*
D02*
G37*
G36*
X0193169Y0196047D02*
X0193123Y0195936D01*
X0193022Y0195165D01*
X0193123Y0194395D01*
X0193421Y0193676D01*
X0193586Y0193461D01*
X0193859Y0193000D01*
X0193586Y0192539D01*
X0193421Y0192324D01*
X0193123Y0191605D01*
X0193022Y0190835D01*
X0193123Y0190064D01*
X0193169Y0189953D01*
X0195026Y0191809D01*
X0196000Y0190835D01*
X0196974Y0191809D01*
X0198831Y0189953D01*
X0198877Y0190064D01*
X0198978Y0190835D01*
X0198877Y0191605D01*
X0198579Y0192324D01*
X0198414Y0192539D01*
X0198141Y0193000D01*
X0198414Y0193461D01*
X0198579Y0193676D01*
X0198877Y0194395D01*
X0198978Y0195165D01*
X0198877Y0195936D01*
X0198831Y0196047D01*
X0196974Y0194191D01*
X0196000Y0195165D01*
X0195026Y0194191D01*
X0193169Y0196047D01*
D02*
G37*
G36*
X0196000Y0198144D02*
X0195229Y0198042D01*
X0195118Y0197996D01*
X0196000Y0197114D01*
X0196882Y0197996D01*
X0196771Y0198042D01*
X0196000Y0198144D01*
D02*
G37*
G36*
X0224669Y0199382D02*
X0224623Y0199271D01*
X0224522Y0198500D01*
X0224623Y0197729D01*
X0224669Y0197618D01*
X0225551Y0198500D01*
X0224669Y0199382D01*
D02*
G37*
G36*
X0230331Y0199382D02*
X0229449Y0198500D01*
X0230331Y0197618D01*
X0230377Y0197729D01*
X0230478Y0198500D01*
X0230377Y0199271D01*
X0230331Y0199382D01*
D02*
G37*
G36*
X0166500Y0193416D02*
X0165357Y0193265D01*
X0164527Y0192921D01*
X0166500Y0190949D01*
X0168473Y0192921D01*
X0167643Y0193265D01*
X0166500Y0193416D01*
D02*
G37*
G36*
X0170300Y0202800D02*
X0162700D01*
Y0195200D01*
X0170300D01*
Y0202800D01*
D02*
G37*
G36*
X0227500Y0196551D02*
X0226618Y0195669D01*
X0226729Y0195623D01*
X0227500Y0195522D01*
X0228271Y0195623D01*
X0228382Y0195669D01*
X0227500Y0196551D01*
D02*
G37*
G36*
X0206500Y0162785D02*
X0205520Y0162656D01*
X0204607Y0162278D01*
X0203823Y0161677D01*
X0203222Y0160893D01*
X0202844Y0159980D01*
X0202715Y0159000D01*
X0202844Y0158020D01*
X0203222Y0157107D01*
X0203823Y0156324D01*
X0204607Y0155722D01*
X0205520Y0155344D01*
X0206500Y0155215D01*
X0207480Y0155344D01*
X0208393Y0155722D01*
X0209176Y0156324D01*
X0209778Y0157107D01*
X0210156Y0158020D01*
X0210285Y0159000D01*
X0210156Y0159980D01*
X0209778Y0160893D01*
X0209176Y0161677D01*
X0208393Y0162278D01*
X0207480Y0162656D01*
X0206500Y0162785D01*
D02*
G37*
G36*
X0216500D02*
X0215520Y0162656D01*
X0214607Y0162278D01*
X0213824Y0161677D01*
X0213222Y0160893D01*
X0212844Y0159980D01*
X0212715Y0159000D01*
X0212844Y0158020D01*
X0213222Y0157107D01*
X0213824Y0156324D01*
X0214607Y0155722D01*
X0215520Y0155344D01*
X0216500Y0155215D01*
X0217480Y0155344D01*
X0218393Y0155722D01*
X0219177Y0156324D01*
X0219778Y0157107D01*
X0220156Y0158020D01*
X0220285Y0159000D01*
X0220156Y0159980D01*
X0219778Y0160893D01*
X0219177Y0161677D01*
X0218393Y0162278D01*
X0217480Y0162656D01*
X0216500Y0162785D01*
D02*
G37*
G36*
X0226500D02*
X0225520Y0162656D01*
X0224607Y0162278D01*
X0223823Y0161677D01*
X0223222Y0160893D01*
X0222844Y0159980D01*
X0222715Y0159000D01*
X0222844Y0158020D01*
X0223222Y0157107D01*
X0223823Y0156324D01*
X0224607Y0155722D01*
X0225520Y0155344D01*
X0226500Y0155215D01*
X0227480Y0155344D01*
X0228393Y0155722D01*
X0229176Y0156324D01*
X0229778Y0157107D01*
X0230156Y0158020D01*
X0230285Y0159000D01*
X0230156Y0159980D01*
X0229778Y0160893D01*
X0229176Y0161677D01*
X0228393Y0162278D01*
X0227480Y0162656D01*
X0226500Y0162785D01*
D02*
G37*
G36*
X0176500D02*
X0175520Y0162656D01*
X0174607Y0162278D01*
X0173823Y0161677D01*
X0173222Y0160893D01*
X0172844Y0159980D01*
X0172715Y0159000D01*
X0172844Y0158020D01*
X0173222Y0157107D01*
X0173823Y0156324D01*
X0174607Y0155722D01*
X0175520Y0155344D01*
X0176500Y0155215D01*
X0177480Y0155344D01*
X0178393Y0155722D01*
X0179176Y0156324D01*
X0179778Y0157107D01*
X0180156Y0158020D01*
X0180285Y0159000D01*
X0180156Y0159980D01*
X0179778Y0160893D01*
X0179176Y0161677D01*
X0178393Y0162278D01*
X0177480Y0162656D01*
X0176500Y0162785D01*
D02*
G37*
G36*
X0186500D02*
X0185520Y0162656D01*
X0184607Y0162278D01*
X0183824Y0161677D01*
X0183222Y0160893D01*
X0182844Y0159980D01*
X0182715Y0159000D01*
X0182844Y0158020D01*
X0183222Y0157107D01*
X0183824Y0156324D01*
X0184607Y0155722D01*
X0185520Y0155344D01*
X0186500Y0155215D01*
X0187480Y0155344D01*
X0188393Y0155722D01*
X0189176Y0156324D01*
X0189778Y0157107D01*
X0190156Y0158020D01*
X0190285Y0159000D01*
X0190156Y0159980D01*
X0189778Y0160893D01*
X0189176Y0161677D01*
X0188393Y0162278D01*
X0187480Y0162656D01*
X0186500Y0162785D01*
D02*
G37*
G36*
X0196500D02*
X0195520Y0162656D01*
X0194607Y0162278D01*
X0193824Y0161677D01*
X0193222Y0160893D01*
X0192844Y0159980D01*
X0192715Y0159000D01*
X0192844Y0158020D01*
X0193222Y0157107D01*
X0193824Y0156324D01*
X0194607Y0155722D01*
X0195520Y0155344D01*
X0196500Y0155215D01*
X0197480Y0155344D01*
X0198393Y0155722D01*
X0199177Y0156324D01*
X0199778Y0157107D01*
X0200156Y0158020D01*
X0200285Y0159000D01*
X0200156Y0159980D01*
X0199778Y0160893D01*
X0199177Y0161677D01*
X0198393Y0162278D01*
X0197480Y0162656D01*
X0196500Y0162785D01*
D02*
G37*
G36*
X0236500D02*
X0235520Y0162656D01*
X0234607Y0162278D01*
X0233823Y0161677D01*
X0233222Y0160893D01*
X0232844Y0159980D01*
X0232715Y0159000D01*
X0232844Y0158020D01*
X0233222Y0157107D01*
X0233823Y0156324D01*
X0234607Y0155722D01*
X0235520Y0155344D01*
X0236500Y0155215D01*
X0237480Y0155344D01*
X0238393Y0155722D01*
X0239177Y0156324D01*
X0239778Y0157107D01*
X0240156Y0158020D01*
X0240285Y0159000D01*
X0240156Y0159980D01*
X0239778Y0160893D01*
X0239177Y0161677D01*
X0238393Y0162278D01*
X0237480Y0162656D01*
X0236500Y0162785D01*
D02*
G37*
G36*
X0276500D02*
X0275520Y0162656D01*
X0274607Y0162278D01*
X0273823Y0161677D01*
X0273222Y0160893D01*
X0272844Y0159980D01*
X0272715Y0159000D01*
X0272844Y0158020D01*
X0273222Y0157107D01*
X0273823Y0156324D01*
X0274607Y0155722D01*
X0275520Y0155344D01*
X0276500Y0155215D01*
X0277480Y0155344D01*
X0278393Y0155722D01*
X0279176Y0156324D01*
X0279778Y0157107D01*
X0280156Y0158020D01*
X0280285Y0159000D01*
X0280156Y0159980D01*
X0279778Y0160893D01*
X0279176Y0161677D01*
X0278393Y0162278D01*
X0277480Y0162656D01*
X0276500Y0162785D01*
D02*
G37*
G36*
X0286500D02*
X0285520Y0162656D01*
X0284607Y0162278D01*
X0283823Y0161677D01*
X0283222Y0160893D01*
X0282844Y0159980D01*
X0282715Y0159000D01*
X0282844Y0158020D01*
X0283222Y0157107D01*
X0283823Y0156324D01*
X0284607Y0155722D01*
X0285520Y0155344D01*
X0286500Y0155215D01*
X0287480Y0155344D01*
X0288393Y0155722D01*
X0289177Y0156324D01*
X0289778Y0157107D01*
X0290156Y0158020D01*
X0290285Y0159000D01*
X0290156Y0159980D01*
X0289778Y0160893D01*
X0289177Y0161677D01*
X0288393Y0162278D01*
X0287480Y0162656D01*
X0286500Y0162785D01*
D02*
G37*
G36*
X0166500D02*
X0165520Y0162656D01*
X0164607Y0162278D01*
X0163823Y0161677D01*
X0163222Y0160893D01*
X0162844Y0159980D01*
X0162715Y0159000D01*
X0162844Y0158020D01*
X0163222Y0157107D01*
X0163823Y0156324D01*
X0164607Y0155722D01*
X0165520Y0155344D01*
X0166500Y0155215D01*
X0167480Y0155344D01*
X0168393Y0155722D01*
X0169176Y0156324D01*
X0169778Y0157107D01*
X0170156Y0158020D01*
X0170285Y0159000D01*
X0170156Y0159980D01*
X0169778Y0160893D01*
X0169176Y0161677D01*
X0168393Y0162278D01*
X0167480Y0162656D01*
X0166500Y0162785D01*
D02*
G37*
G36*
X0246500D02*
X0245520Y0162656D01*
X0244607Y0162278D01*
X0243824Y0161677D01*
X0243222Y0160893D01*
X0242844Y0159980D01*
X0242715Y0159000D01*
X0242844Y0158020D01*
X0243222Y0157107D01*
X0243824Y0156324D01*
X0244607Y0155722D01*
X0245520Y0155344D01*
X0246500Y0155215D01*
X0247480Y0155344D01*
X0248393Y0155722D01*
X0249177Y0156324D01*
X0249778Y0157107D01*
X0250156Y0158020D01*
X0250285Y0159000D01*
X0250156Y0159980D01*
X0249778Y0160893D01*
X0249177Y0161677D01*
X0248393Y0162278D01*
X0247480Y0162656D01*
X0246500Y0162785D01*
D02*
G37*
G36*
X0256500D02*
X0255520Y0162656D01*
X0254607Y0162278D01*
X0253823Y0161677D01*
X0253222Y0160893D01*
X0252844Y0159980D01*
X0252715Y0159000D01*
X0252844Y0158020D01*
X0253222Y0157107D01*
X0253823Y0156324D01*
X0254607Y0155722D01*
X0255520Y0155344D01*
X0256500Y0155215D01*
X0257480Y0155344D01*
X0258393Y0155722D01*
X0259176Y0156324D01*
X0259778Y0157107D01*
X0260156Y0158020D01*
X0260285Y0159000D01*
X0260156Y0159980D01*
X0259778Y0160893D01*
X0259176Y0161677D01*
X0258393Y0162278D01*
X0257480Y0162656D01*
X0256500Y0162785D01*
D02*
G37*
G36*
X0266500D02*
X0265520Y0162656D01*
X0264607Y0162278D01*
X0263824Y0161677D01*
X0263222Y0160893D01*
X0262844Y0159980D01*
X0262715Y0159000D01*
X0262844Y0158020D01*
X0263222Y0157107D01*
X0263824Y0156324D01*
X0264607Y0155722D01*
X0265520Y0155344D01*
X0266500Y0155215D01*
X0267480Y0155344D01*
X0268393Y0155722D01*
X0269177Y0156324D01*
X0269778Y0157107D01*
X0270156Y0158020D01*
X0270285Y0159000D01*
X0270156Y0159980D01*
X0269778Y0160893D01*
X0269177Y0161677D01*
X0268393Y0162278D01*
X0267480Y0162656D01*
X0266500Y0162785D01*
D02*
G37*
G36*
X0306500Y0237051D02*
X0304563Y0235115D01*
X0305369Y0234781D01*
X0306500Y0234632D01*
X0307630Y0234781D01*
X0308437Y0235115D01*
X0306500Y0237051D01*
D02*
G37*
G36*
X0276500Y0242785D02*
X0275520Y0242656D01*
X0274607Y0242278D01*
X0273823Y0241676D01*
X0273222Y0240893D01*
X0272844Y0239980D01*
X0272715Y0239000D01*
X0272844Y0238020D01*
X0273222Y0237107D01*
X0273823Y0236323D01*
X0274607Y0235722D01*
X0275520Y0235344D01*
X0276500Y0235215D01*
X0277480Y0235344D01*
X0278393Y0235722D01*
X0279176Y0236323D01*
X0279778Y0237107D01*
X0280156Y0238020D01*
X0280285Y0239000D01*
X0280156Y0239980D01*
X0279778Y0240893D01*
X0279176Y0241676D01*
X0278393Y0242278D01*
X0277480Y0242656D01*
X0276500Y0242785D01*
D02*
G37*
G36*
X0286500D02*
X0285520Y0242656D01*
X0284607Y0242278D01*
X0283823Y0241676D01*
X0283222Y0240893D01*
X0282844Y0239980D01*
X0282715Y0239000D01*
X0282844Y0238020D01*
X0283222Y0237107D01*
X0283823Y0236323D01*
X0284607Y0235722D01*
X0285520Y0235344D01*
X0286500Y0235215D01*
X0287480Y0235344D01*
X0288393Y0235722D01*
X0289177Y0236323D01*
X0289778Y0237107D01*
X0290156Y0238020D01*
X0290285Y0239000D01*
X0290156Y0239980D01*
X0289778Y0240893D01*
X0289177Y0241676D01*
X0288393Y0242278D01*
X0287480Y0242656D01*
X0286500Y0242785D01*
D02*
G37*
G36*
X0166500Y0222833D02*
X0165508Y0222702D01*
X0164584Y0222319D01*
X0163790Y0221710D01*
X0163181Y0220916D01*
X0162798Y0219992D01*
X0162667Y0219000D01*
X0162798Y0218008D01*
X0163181Y0217084D01*
X0163790Y0216290D01*
X0164584Y0215681D01*
X0165508Y0215298D01*
X0166500Y0215167D01*
X0167492Y0215298D01*
X0168416Y0215681D01*
X0169210Y0216290D01*
X0169819Y0217084D01*
X0170202Y0218008D01*
X0170333Y0219000D01*
X0170202Y0219992D01*
X0169819Y0220916D01*
X0169210Y0221710D01*
X0168416Y0222319D01*
X0167492Y0222702D01*
X0166500Y0222833D01*
D02*
G37*
G36*
Y0232833D02*
X0165508Y0232702D01*
X0164584Y0232319D01*
X0163790Y0231710D01*
X0163181Y0230916D01*
X0162798Y0229992D01*
X0162667Y0229000D01*
X0162798Y0228008D01*
X0163181Y0227084D01*
X0163790Y0226290D01*
X0164584Y0225681D01*
X0165508Y0225298D01*
X0166500Y0225167D01*
X0167492Y0225298D01*
X0168416Y0225681D01*
X0169210Y0226290D01*
X0169819Y0227084D01*
X0170202Y0228008D01*
X0170333Y0229000D01*
X0170202Y0229992D01*
X0169819Y0230916D01*
X0169210Y0231710D01*
X0168416Y0232319D01*
X0167492Y0232702D01*
X0166500Y0232833D01*
D02*
G37*
G36*
X0296500Y0237051D02*
X0294563Y0235115D01*
X0295370Y0234781D01*
X0296500Y0234632D01*
X0297631Y0234781D01*
X0298437Y0235115D01*
X0296500Y0237051D01*
D02*
G37*
G36*
X0266500Y0242785D02*
X0265520Y0242656D01*
X0264607Y0242278D01*
X0263824Y0241676D01*
X0263222Y0240893D01*
X0262844Y0239980D01*
X0262715Y0239000D01*
X0262844Y0238020D01*
X0263222Y0237107D01*
X0263824Y0236323D01*
X0264092Y0236117D01*
X0263838Y0235556D01*
X0263625Y0235598D01*
X0259217D01*
X0259013Y0236198D01*
X0259176Y0236323D01*
X0259778Y0237107D01*
X0260156Y0238020D01*
X0260285Y0239000D01*
X0260156Y0239980D01*
X0259778Y0240893D01*
X0259176Y0241676D01*
X0258393Y0242278D01*
X0257480Y0242656D01*
X0256500Y0242785D01*
X0255520Y0242656D01*
X0254607Y0242278D01*
X0253823Y0241676D01*
X0253222Y0240893D01*
X0252844Y0239980D01*
X0252715Y0239000D01*
X0252844Y0238020D01*
X0253222Y0237107D01*
X0253823Y0236323D01*
X0253987Y0236198D01*
X0253783Y0235598D01*
X0249217D01*
X0249013Y0236198D01*
X0249177Y0236323D01*
X0249778Y0237107D01*
X0250156Y0238020D01*
X0250285Y0239000D01*
X0250156Y0239980D01*
X0249778Y0240893D01*
X0249177Y0241676D01*
X0248393Y0242278D01*
X0247480Y0242656D01*
X0246500Y0242785D01*
X0245520Y0242656D01*
X0244607Y0242278D01*
X0243824Y0241676D01*
X0243222Y0240893D01*
X0242844Y0239980D01*
X0242715Y0239000D01*
X0242844Y0238020D01*
X0243222Y0237107D01*
X0243824Y0236323D01*
X0243987Y0236198D01*
X0243783Y0235598D01*
X0239217D01*
X0239013Y0236198D01*
X0239177Y0236323D01*
X0239778Y0237107D01*
X0240156Y0238020D01*
X0240285Y0239000D01*
X0240156Y0239980D01*
X0239778Y0240893D01*
X0239177Y0241676D01*
X0238393Y0242278D01*
X0237480Y0242656D01*
X0236500Y0242785D01*
X0235520Y0242656D01*
X0234607Y0242278D01*
X0233823Y0241676D01*
X0233222Y0240893D01*
X0232844Y0239980D01*
X0232715Y0239000D01*
X0232844Y0238020D01*
X0233222Y0237107D01*
X0233823Y0236323D01*
X0233987Y0236198D01*
X0233783Y0235598D01*
X0231632D01*
X0229879Y0237351D01*
X0230156Y0238020D01*
X0230285Y0239000D01*
X0230156Y0239980D01*
X0229778Y0240893D01*
X0229176Y0241676D01*
X0228393Y0242278D01*
X0227480Y0242656D01*
X0226500Y0242785D01*
X0225520Y0242656D01*
X0224607Y0242278D01*
X0223823Y0241676D01*
X0223222Y0240893D01*
X0222844Y0239980D01*
X0222715Y0239000D01*
X0222844Y0238020D01*
X0223222Y0237107D01*
X0223823Y0236323D01*
X0224607Y0235722D01*
X0225520Y0235344D01*
X0226500Y0235215D01*
X0227480Y0235344D01*
X0228149Y0235621D01*
X0229217Y0234553D01*
X0228987Y0233998D01*
X0223232D01*
X0219879Y0237351D01*
X0220156Y0238020D01*
X0220285Y0239000D01*
X0220156Y0239980D01*
X0219778Y0240893D01*
X0219177Y0241676D01*
X0218393Y0242278D01*
X0217480Y0242656D01*
X0216500Y0242785D01*
X0215520Y0242656D01*
X0214607Y0242278D01*
X0213824Y0241676D01*
X0213222Y0240893D01*
X0212844Y0239980D01*
X0212715Y0239000D01*
X0212844Y0238020D01*
X0213222Y0237107D01*
X0213824Y0236323D01*
X0214607Y0235722D01*
X0215520Y0235344D01*
X0216500Y0235215D01*
X0217480Y0235344D01*
X0218149Y0235621D01*
X0220817Y0232953D01*
X0220587Y0232398D01*
X0214832D01*
X0209879Y0237351D01*
X0210156Y0238020D01*
X0210285Y0239000D01*
X0210156Y0239980D01*
X0209778Y0240893D01*
X0209176Y0241676D01*
X0208393Y0242278D01*
X0207480Y0242656D01*
X0206500Y0242785D01*
X0205520Y0242656D01*
X0204607Y0242278D01*
X0203823Y0241676D01*
X0203222Y0240893D01*
X0202844Y0239980D01*
X0202715Y0239000D01*
X0202844Y0238020D01*
X0203222Y0237107D01*
X0203823Y0236323D01*
X0204607Y0235722D01*
X0205520Y0235344D01*
X0206500Y0235215D01*
X0207480Y0235344D01*
X0208149Y0235621D01*
X0212417Y0231353D01*
X0212187Y0230798D01*
X0206432D01*
X0199879Y0237351D01*
X0200156Y0238020D01*
X0200285Y0239000D01*
X0200156Y0239980D01*
X0199778Y0240893D01*
X0199177Y0241676D01*
X0198393Y0242278D01*
X0197480Y0242656D01*
X0196500Y0242785D01*
X0195520Y0242656D01*
X0194607Y0242278D01*
X0193824Y0241676D01*
X0193222Y0240893D01*
X0192844Y0239980D01*
X0192715Y0239000D01*
X0192844Y0238020D01*
X0193222Y0237107D01*
X0193824Y0236323D01*
X0194607Y0235722D01*
X0195520Y0235344D01*
X0196500Y0235215D01*
X0197480Y0235344D01*
X0198149Y0235621D01*
X0204017Y0229753D01*
X0203787Y0229198D01*
X0198032D01*
X0189879Y0237351D01*
X0190156Y0238020D01*
X0190285Y0239000D01*
X0190156Y0239980D01*
X0189778Y0240893D01*
X0189176Y0241676D01*
X0188393Y0242278D01*
X0187480Y0242656D01*
X0186500Y0242785D01*
X0185520Y0242656D01*
X0184607Y0242278D01*
X0183824Y0241676D01*
X0183222Y0240893D01*
X0182844Y0239980D01*
X0182715Y0239000D01*
X0182844Y0238020D01*
X0183222Y0237107D01*
X0183824Y0236323D01*
X0184607Y0235722D01*
X0185520Y0235344D01*
X0186500Y0235215D01*
X0187480Y0235344D01*
X0188149Y0235621D01*
X0195617Y0228153D01*
X0195387Y0227598D01*
X0189632D01*
X0179879Y0237351D01*
X0180156Y0238020D01*
X0180285Y0239000D01*
X0180156Y0239980D01*
X0179778Y0240893D01*
X0179176Y0241676D01*
X0178393Y0242278D01*
X0177480Y0242656D01*
X0176500Y0242785D01*
X0175520Y0242656D01*
X0174607Y0242278D01*
X0173823Y0241676D01*
X0173222Y0240893D01*
X0172844Y0239980D01*
X0172715Y0239000D01*
X0172844Y0238020D01*
X0173222Y0237107D01*
X0173823Y0236323D01*
X0174607Y0235722D01*
X0175520Y0235344D01*
X0176500Y0235215D01*
X0177480Y0235344D01*
X0178149Y0235621D01*
X0187217Y0226553D01*
X0186987Y0225998D01*
X0181232D01*
X0170253Y0236978D01*
Y0242753D01*
X0162747D01*
Y0235247D01*
X0168523D01*
X0179860Y0223910D01*
X0180257Y0223644D01*
X0180725Y0223551D01*
X0214082D01*
X0214264Y0222951D01*
X0214135Y0222865D01*
X0202035Y0210765D01*
X0201770Y0210368D01*
X0201677Y0209900D01*
Y0185600D01*
X0201770Y0185132D01*
X0202035Y0184735D01*
X0202693Y0184076D01*
X0202579Y0183500D01*
X0202763Y0182573D01*
X0203288Y0181788D01*
X0204073Y0181263D01*
X0205000Y0181079D01*
X0205927Y0181263D01*
X0206712Y0181788D01*
X0207018Y0182245D01*
X0207655Y0182118D01*
X0207763Y0181573D01*
X0208288Y0180788D01*
X0209073Y0180263D01*
X0210000Y0180079D01*
X0210927Y0180263D01*
X0211712Y0180788D01*
X0212237Y0181573D01*
X0212421Y0182500D01*
X0212237Y0183427D01*
X0211712Y0184212D01*
X0210927Y0184737D01*
X0210000Y0184921D01*
X0209424Y0184807D01*
X0205724Y0188507D01*
Y0195924D01*
X0206324Y0196291D01*
X0206729Y0196123D01*
X0207500Y0196022D01*
X0208271Y0196123D01*
X0208382Y0196169D01*
X0206526Y0198026D01*
X0207500Y0199000D01*
X0206526Y0199974D01*
X0208382Y0201831D01*
X0208271Y0201877D01*
X0207500Y0201978D01*
X0206729Y0201877D01*
X0206324Y0201709D01*
X0205724Y0202076D01*
Y0208731D01*
X0208585Y0211592D01*
X0209138Y0211296D01*
X0209079Y0211000D01*
X0209263Y0210073D01*
X0209759Y0209331D01*
X0209781Y0209251D01*
X0209768Y0209181D01*
X0211974Y0206974D01*
X0213831Y0205118D01*
X0213877Y0205229D01*
X0213978Y0206000D01*
X0213877Y0206771D01*
X0213579Y0207489D01*
X0213106Y0208106D01*
X0212835Y0208314D01*
X0212859Y0209052D01*
X0213212Y0209288D01*
X0213300Y0209420D01*
X0223200D01*
X0223288Y0209288D01*
X0224073Y0208763D01*
X0225000Y0208579D01*
X0225927Y0208763D01*
X0226712Y0209288D01*
X0227039Y0209776D01*
X0275993D01*
X0279776Y0205994D01*
X0279665Y0205828D01*
X0279480Y0204902D01*
X0279665Y0203975D01*
X0280189Y0203189D01*
X0280678Y0202863D01*
Y0183598D01*
X0280771Y0183130D01*
X0281036Y0182733D01*
X0302747Y0161022D01*
Y0155247D01*
X0310253D01*
Y0162753D01*
X0304478D01*
X0283125Y0184105D01*
Y0202863D01*
X0283614Y0203189D01*
X0284139Y0203975D01*
X0284323Y0204902D01*
X0284139Y0205828D01*
X0283614Y0206614D01*
X0282828Y0207139D01*
X0281909Y0207322D01*
X0277365Y0211865D01*
X0276968Y0212130D01*
X0276500Y0212224D01*
X0241117D01*
X0241042Y0212435D01*
X0241017Y0212824D01*
X0241712Y0213288D01*
X0242237Y0214073D01*
X0242421Y0215000D01*
X0242237Y0215927D01*
X0241712Y0216712D01*
X0240927Y0217237D01*
X0240000Y0217421D01*
X0239073Y0217237D01*
X0238288Y0216712D01*
X0237961Y0216224D01*
X0237007D01*
X0228633Y0224597D01*
X0228863Y0225151D01*
X0243954D01*
X0244079Y0225000D01*
X0244263Y0224073D01*
X0244788Y0223288D01*
X0245573Y0222763D01*
X0246500Y0222579D01*
X0247427Y0222763D01*
X0248212Y0223288D01*
X0248737Y0224073D01*
X0248921Y0225000D01*
X0248737Y0225927D01*
X0248587Y0226151D01*
X0248908Y0226751D01*
X0253144D01*
X0253617Y0226192D01*
X0253579Y0226000D01*
X0253763Y0225073D01*
X0254288Y0224288D01*
X0255073Y0223763D01*
X0256000Y0223579D01*
X0256927Y0223763D01*
X0257712Y0224288D01*
X0258237Y0225073D01*
X0258330Y0225538D01*
X0258996Y0225815D01*
X0259073Y0225763D01*
X0260000Y0225579D01*
X0260193Y0225617D01*
X0260617Y0225193D01*
X0260579Y0225000D01*
X0260763Y0224073D01*
X0261288Y0223288D01*
X0262073Y0222763D01*
X0263000Y0222579D01*
X0263927Y0222763D01*
X0264712Y0223288D01*
X0265237Y0224073D01*
X0265421Y0225000D01*
X0265380Y0225206D01*
X0265805Y0225631D01*
X0265940Y0225604D01*
X0266038Y0225623D01*
X0266652Y0225134D01*
X0266763Y0224573D01*
X0267288Y0223788D01*
X0268073Y0223263D01*
X0269000Y0223079D01*
X0269927Y0223263D01*
X0270712Y0223788D01*
X0271237Y0224573D01*
X0271421Y0225500D01*
X0271237Y0226427D01*
X0270712Y0227212D01*
X0270223Y0227539D01*
Y0229000D01*
X0270130Y0229468D01*
X0269865Y0229865D01*
X0264693Y0235037D01*
X0265033Y0235546D01*
X0265520Y0235344D01*
X0266500Y0235215D01*
X0267480Y0235344D01*
X0268393Y0235722D01*
X0269177Y0236323D01*
X0269778Y0237107D01*
X0270156Y0238020D01*
X0270285Y0239000D01*
X0270156Y0239980D01*
X0269778Y0240893D01*
X0269177Y0241676D01*
X0268393Y0242278D01*
X0267480Y0242656D01*
X0266500Y0242785D01*
D02*
G37*
G36*
X0310385Y0240937D02*
X0308449Y0239000D01*
X0310385Y0237063D01*
X0310719Y0237870D01*
X0310868Y0239000D01*
X0310719Y0240130D01*
X0310385Y0240937D01*
D02*
G37*
G36*
X0296500Y0243368D02*
X0295370Y0243219D01*
X0294563Y0242885D01*
X0296500Y0240949D01*
X0298437Y0242885D01*
X0297631Y0243219D01*
X0296500Y0243368D01*
D02*
G37*
G36*
X0306500D02*
X0305369Y0243219D01*
X0304563Y0242885D01*
X0306500Y0240949D01*
X0308437Y0242885D01*
X0307630Y0243219D01*
X0306500Y0243368D01*
D02*
G37*
G36*
X0292615Y0240937D02*
X0292281Y0240130D01*
X0292132Y0239000D01*
X0292281Y0237870D01*
X0292615Y0237063D01*
X0294551Y0239000D01*
X0292615Y0240937D01*
D02*
G37*
G36*
X0302615D02*
X0302281Y0240130D01*
X0302132Y0239000D01*
X0302281Y0237870D01*
X0302615Y0237063D01*
X0304551Y0239000D01*
X0302615Y0240937D01*
D02*
G37*
G36*
X0300385Y0240937D02*
X0298449Y0239000D01*
X0300385Y0237063D01*
X0300719Y0237870D01*
X0300868Y0239000D01*
X0300719Y0240130D01*
X0300385Y0240937D01*
D02*
G37*
G36*
X0211000Y0204051D02*
X0210118Y0203169D01*
X0210229Y0203123D01*
X0211000Y0203022D01*
X0211771Y0203123D01*
X0211882Y0203169D01*
X0211000Y0204051D01*
D02*
G37*
G36*
X0166500Y0207051D02*
X0164527Y0205079D01*
X0165357Y0204735D01*
X0166500Y0204584D01*
X0167643Y0204735D01*
X0168473Y0205079D01*
X0166500Y0207051D01*
D02*
G37*
G36*
X0178578Y0208973D02*
X0178235Y0208143D01*
X0178084Y0207000D01*
X0178235Y0205857D01*
X0178578Y0205027D01*
X0180551Y0207000D01*
X0178578Y0208973D01*
D02*
G37*
G36*
X0210331Y0199882D02*
X0209449Y0199000D01*
X0210331Y0198118D01*
X0210377Y0198229D01*
X0210478Y0199000D01*
X0210377Y0199771D01*
X0210331Y0199882D01*
D02*
G37*
G36*
X0227500Y0201478D02*
X0226729Y0201377D01*
X0226618Y0201331D01*
X0227500Y0200449D01*
X0228382Y0201331D01*
X0228271Y0201377D01*
X0227500Y0201478D01*
D02*
G37*
G36*
X0182500Y0205051D02*
X0180527Y0203079D01*
X0181357Y0202735D01*
X0182500Y0202584D01*
X0183643Y0202735D01*
X0184473Y0203079D01*
X0182500Y0205051D01*
D02*
G37*
G36*
X0186422Y0208973D02*
X0184449Y0207000D01*
X0186422Y0205027D01*
X0186765Y0205857D01*
X0186916Y0207000D01*
X0186765Y0208143D01*
X0186422Y0208973D01*
D02*
G37*
G36*
X0182500Y0211416D02*
X0181357Y0211265D01*
X0180527Y0210922D01*
X0182500Y0208949D01*
X0184473Y0210922D01*
X0183643Y0211265D01*
X0182500Y0211416D01*
D02*
G37*
G36*
X0166500Y0213416D02*
X0165357Y0213265D01*
X0164527Y0212922D01*
X0166500Y0210949D01*
X0168473Y0212922D01*
X0167643Y0213265D01*
X0166500Y0213416D01*
D02*
G37*
G36*
X0186300Y0220800D02*
X0178700D01*
Y0213200D01*
X0186300D01*
Y0220800D01*
D02*
G37*
G36*
X0208169Y0206882D02*
X0208123Y0206771D01*
X0208022Y0206000D01*
X0208123Y0205229D01*
X0208169Y0205118D01*
X0209051Y0206000D01*
X0208169Y0206882D01*
D02*
G37*
G36*
X0170422Y0210973D02*
X0168449Y0209000D01*
X0170422Y0207027D01*
X0170765Y0207857D01*
X0170916Y0209000D01*
X0170765Y0210143D01*
X0170422Y0210973D01*
D02*
G37*
G36*
X0162578Y0210973D02*
X0162235Y0210143D01*
X0162084Y0209000D01*
X0162235Y0207857D01*
X0162578Y0207027D01*
X0164551Y0209000D01*
X0162578Y0210973D01*
D02*
G37*
%LPD*%
D31*
X0307100Y0187900D02*
D03*
Y0209900D02*
D03*
Y0182168D02*
D03*
Y0215632D02*
D03*
D32*
X0214263Y0219000D02*
X0220000D01*
X0204500Y0209237D02*
X0214263Y0219000D01*
X0204500Y0188000D02*
Y0209237D01*
X0215000Y0222000D02*
X0225500D01*
X0202900Y0209900D02*
X0215000Y0222000D01*
X0202900Y0185600D02*
Y0209900D01*
X0254025Y0227975D02*
X0256000Y0226000D01*
X0197525Y0227975D02*
X0254025D01*
X0258425Y0229575D02*
X0260000Y0228000D01*
X0205925Y0229575D02*
X0258425D01*
X0260749Y0231175D02*
X0263000Y0228924D01*
X0214325Y0231175D02*
X0260749D01*
X0261412Y0232775D02*
X0265940Y0228247D01*
X0222725Y0232775D02*
X0261412D01*
X0265940Y0228025D02*
Y0228247D01*
X0263625Y0234375D02*
X0269000Y0229000D01*
X0231125Y0234375D02*
X0263625D01*
X0226500Y0239000D02*
X0231125Y0234375D01*
X0216500Y0239000D02*
X0222725Y0232775D01*
X0206500Y0239000D02*
X0214325Y0231175D01*
X0196500Y0239000D02*
X0205925Y0229575D01*
X0186500Y0239000D02*
X0197525Y0227975D01*
X0226725Y0224775D02*
X0236500Y0215000D01*
X0180725Y0224775D02*
X0226725D01*
X0189125Y0226375D02*
X0245125D01*
X0176500Y0239000D02*
X0189125Y0226375D01*
X0245125D02*
X0246500Y0225000D01*
X0263000D02*
Y0228924D01*
X0166500Y0239000D02*
X0180725Y0224775D01*
X0236500Y0215000D02*
X0240000D01*
X0281902Y0183598D02*
X0306500Y0159000D01*
X0281902Y0183598D02*
Y0204902D01*
Y0205402D01*
X0282000Y0205500D01*
X0276500Y0211000D02*
X0282000Y0205500D01*
X0225000Y0211000D02*
X0276500D01*
X0202900Y0185600D02*
X0205000Y0183500D01*
X0204500Y0188000D02*
X0210000Y0182500D01*
X0269000Y0225500D02*
Y0229000D01*
D33*
X0211000Y0206000D02*
X0218500Y0198500D01*
X0227500D01*
X0305000Y0188500D02*
Y0210500D01*
X0211000Y0202500D02*
Y0206000D01*
X0207500Y0199000D02*
X0211000Y0202500D01*
X0184165Y0207000D02*
X0196000Y0195165D01*
X0182500Y0207000D02*
X0184165D01*
D35*
X0211500Y0211000D02*
X0225000D01*
D38*
X0166500Y0159000D02*
D03*
X0176500D02*
D03*
X0186500D02*
D03*
X0196500D02*
D03*
X0206500D02*
D03*
X0216500D02*
D03*
X0226500D02*
D03*
X0236500D02*
D03*
X0246500D02*
D03*
X0256500D02*
D03*
X0266500D02*
D03*
X0276500D02*
D03*
X0286500D02*
D03*
X0296500D02*
D03*
X0306500Y0239000D02*
D03*
X0296500D02*
D03*
X0286500D02*
D03*
X0276500D02*
D03*
X0266500D02*
D03*
X0256500D02*
D03*
X0246500D02*
D03*
X0236500D02*
D03*
X0226500D02*
D03*
X0216500D02*
D03*
X0206500D02*
D03*
X0196500D02*
D03*
X0186500D02*
D03*
X0176500D02*
D03*
D39*
X0306500Y0159000D02*
D03*
X0166500Y0239000D02*
D03*
D40*
X0182500Y0217000D02*
D03*
X0166500Y0199000D02*
D03*
Y0179000D02*
D03*
D41*
X0182500Y0207000D02*
D03*
X0166500Y0229000D02*
D03*
Y0209000D02*
D03*
Y0219000D02*
D03*
Y0189000D02*
D03*
D42*
X0196000Y0195165D02*
D03*
Y0190835D02*
D03*
X0227500Y0198500D02*
D03*
X0281902Y0204902D02*
D03*
X0211000Y0206000D02*
D03*
X0207500Y0199000D02*
D03*
X0205000Y0183500D02*
D03*
X0210000Y0182500D02*
D03*
X0220000Y0219000D02*
D03*
X0225500Y0222000D02*
D03*
X0211500Y0211000D02*
D03*
X0225000D02*
D03*
X0240000Y0215000D02*
D03*
X0246500Y0225000D02*
D03*
X0256000Y0226000D02*
D03*
X0260000Y0228000D02*
D03*
X0263000Y0225000D02*
D03*
X0265940Y0228025D02*
D03*
X0269000Y0225500D02*
D03*
M02*
