G04 Layer_Color=8388736*
%FSAX25Y25*%
%MOIN*%
G70*
G01*
G75*
%ADD52R,0.03162X0.02769*%
G04:AMPARAMS|DCode=53|XSize=23.75mil|YSize=38mil|CornerRadius=0mil|HoleSize=0mil|Usage=FLASHONLY|Rotation=315.000|XOffset=0mil|YOffset=0mil|HoleType=Round|Shape=Octagon|*
%AMOCTAGOND53*
4,1,8,0.00924,0.01763,0.01763,0.00924,0.01763,0.00084,-0.00084,-0.01763,-0.00924,-0.01763,-0.01763,-0.00924,-0.01763,-0.00084,0.00084,0.01763,0.00924,0.01763,0.0*
%
%ADD53OCTAGOND53*%

G04:AMPARAMS|DCode=54|XSize=23mil|YSize=38mil|CornerRadius=0mil|HoleSize=0mil|Usage=FLASHONLY|Rotation=225.000|XOffset=0mil|YOffset=0mil|HoleType=Round|Shape=Octagon|*
%AMOCTAGOND54*
4,1,8,0.01750,-0.00937,0.00937,-0.01750,0.00124,-0.01750,-0.01750,0.00124,-0.01750,0.00937,-0.00937,0.01750,-0.00124,0.01750,0.01750,-0.00124,0.01750,-0.00937,0.0*
%
%ADD54OCTAGOND54*%

%ADD55P,0.04808X4X270.0*%
G04:AMPARAMS|DCode=56|XSize=23mil|YSize=38mil|CornerRadius=0mil|HoleSize=0mil|Usage=FLASHONLY|Rotation=315.000|XOffset=0mil|YOffset=0mil|HoleType=Round|Shape=Octagon|*
%AMOCTAGOND56*
4,1,8,0.00937,0.01750,0.01750,0.00937,0.01750,0.00124,-0.00124,-0.01750,-0.00937,-0.01750,-0.01750,-0.00937,-0.01750,-0.00124,0.00124,0.01750,0.00937,0.01750,0.0*
%
%ADD56OCTAGOND56*%

%ADD57O,0.05118X0.03543*%
%ADD58O,0.04331X0.01969*%
%ADD59R,0.03950X0.04737*%
%ADD60O,0.03543X0.05118*%
%ADD61O,0.01969X0.04331*%
%ADD62R,0.06800X0.02800*%
G04:AMPARAMS|DCode=63|XSize=19mil|YSize=39.5mil|CornerRadius=6.75mil|HoleSize=0mil|Usage=FLASHONLY|Rotation=270.000|XOffset=0mil|YOffset=0mil|HoleType=Round|Shape=RoundedRectangle|*
%AMROUNDEDRECTD63*
21,1,0.01900,0.02600,0,0,270.0*
21,1,0.00550,0.03950,0,0,270.0*
1,1,0.01350,-0.01300,-0.00275*
1,1,0.01350,-0.01300,0.00275*
1,1,0.01350,0.01300,0.00275*
1,1,0.01350,0.01300,-0.00275*
%
%ADD63ROUNDEDRECTD63*%
%ADD64R,0.05524X0.08674*%
%ADD65R,0.04737X0.03950*%
%ADD66R,0.03800X0.03800*%
%ADD67R,0.07099X0.07099*%
G04:AMPARAMS|DCode=68|XSize=70.99mil|YSize=70.99mil|CornerRadius=10.3mil|HoleSize=0mil|Usage=FLASHONLY|Rotation=0.000|XOffset=0mil|YOffset=0mil|HoleType=Round|Shape=RoundedRectangle|*
%AMROUNDEDRECTD68*
21,1,0.07099,0.05039,0,0,0.0*
21,1,0.05039,0.07099,0,0,0.0*
1,1,0.02060,0.02520,-0.02520*
1,1,0.02060,-0.02520,-0.02520*
1,1,0.02060,-0.02520,0.02520*
1,1,0.02060,0.02520,0.02520*
%
%ADD68ROUNDEDRECTD68*%
%ADD69R,0.02769X0.04737*%
%ADD70R,0.04737X0.02769*%
%ADD71R,0.02769X0.03162*%
G04:AMPARAMS|DCode=72|XSize=165.48mil|YSize=67.06mil|CornerRadius=18.76mil|HoleSize=0mil|Usage=FLASHONLY|Rotation=0.000|XOffset=0mil|YOffset=0mil|HoleType=Round|Shape=RoundedRectangle|*
%AMROUNDEDRECTD72*
21,1,0.16548,0.02953,0,0,0.0*
21,1,0.12795,0.06706,0,0,0.0*
1,1,0.03753,0.06398,-0.01476*
1,1,0.03753,-0.06398,-0.01476*
1,1,0.03753,-0.06398,0.01476*
1,1,0.03753,0.06398,0.01476*
%
%ADD72ROUNDEDRECTD72*%
%ADD73R,0.16548X0.08674*%
%ADD74C,0.06706*%
%ADD75R,0.06706X0.06706*%
%ADD76R,0.06800X0.06800*%
%ADD77C,0.06800*%
G36*
X0243200Y0229400D02*
X0243400Y0229200D01*
Y0227600D01*
X0242500Y0226700D01*
X0241000D01*
Y0230300D01*
X0242100D01*
X0243200Y0229400D01*
D02*
G37*
G36*
X0187552Y0191897D02*
X0187604Y0191887D01*
X0187653Y0191870D01*
X0187700Y0191847D01*
X0187744Y0191818D01*
X0187783Y0191783D01*
X0187818Y0191744D01*
X0187847Y0191700D01*
X0187870Y0191653D01*
X0187887Y0191604D01*
X0187897Y0191552D01*
X0187901Y0191500D01*
Y0188000D01*
X0187897Y0187948D01*
X0187887Y0187896D01*
X0187870Y0187847D01*
X0187847Y0187800D01*
X0187818Y0187756D01*
X0187783Y0187717D01*
X0186783Y0186717D01*
X0186744Y0186682D01*
X0186700Y0186653D01*
X0186653Y0186630D01*
X0186604Y0186613D01*
X0186552Y0186603D01*
X0186500Y0186599D01*
X0176500D01*
X0176448Y0186603D01*
X0176396Y0186613D01*
X0176347Y0186630D01*
X0176300Y0186653D01*
X0176256Y0186682D01*
X0176217Y0186717D01*
X0175217Y0187717D01*
X0175182Y0187756D01*
X0175153Y0187800D01*
X0175130Y0187847D01*
X0175113Y0187896D01*
X0175103Y0187948D01*
X0175099Y0188000D01*
Y0191500D01*
X0175103Y0191552D01*
X0175113Y0191604D01*
X0175130Y0191653D01*
X0175153Y0191700D01*
X0175182Y0191744D01*
X0175217Y0191783D01*
X0175256Y0191818D01*
X0175300Y0191847D01*
X0175347Y0191870D01*
X0175396Y0191887D01*
X0175448Y0191897D01*
X0175500Y0191901D01*
X0178250D01*
X0178268Y0191900D01*
X0178286Y0191899D01*
X0178294Y0191898D01*
X0178302Y0191897D01*
X0178320Y0191894D01*
X0178338Y0191891D01*
X0178346Y0191889D01*
X0178354Y0191887D01*
X0178371Y0191881D01*
X0178388Y0191876D01*
X0178396Y0191873D01*
X0178403Y0191870D01*
X0178420Y0191862D01*
X0178436Y0191855D01*
X0178443Y0191851D01*
X0178450Y0191847D01*
X0178465Y0191837D01*
X0178481Y0191828D01*
X0178487Y0191823D01*
X0178494Y0191818D01*
X0178508Y0191806D01*
X0178522Y0191795D01*
X0178527Y0191789D01*
X0178533Y0191783D01*
X0178545Y0191770D01*
X0178558Y0191757D01*
X0179688Y0190401D01*
X0183312D01*
X0184442Y0191757D01*
X0184455Y0191770D01*
X0184467Y0191783D01*
X0184473Y0191789D01*
X0184478Y0191795D01*
X0184492Y0191806D01*
X0184506Y0191818D01*
X0184513Y0191823D01*
X0184519Y0191828D01*
X0184535Y0191837D01*
X0184550Y0191847D01*
X0184557Y0191851D01*
X0184564Y0191855D01*
X0184580Y0191862D01*
X0184597Y0191870D01*
X0184604Y0191873D01*
X0184612Y0191876D01*
X0184629Y0191881D01*
X0184646Y0191887D01*
X0184654Y0191889D01*
X0184662Y0191891D01*
X0184680Y0191894D01*
X0184698Y0191897D01*
X0184706Y0191898D01*
X0184714Y0191899D01*
X0184732Y0191900D01*
X0184750Y0191901D01*
X0187500D01*
X0187552Y0191897D01*
D02*
G37*
G36*
X0186615Y0200240D02*
X0186667Y0200230D01*
X0186716Y0200213D01*
X0186763Y0200190D01*
X0186807Y0200161D01*
X0186846Y0200126D01*
X0187846Y0199126D01*
X0187881Y0199087D01*
X0187910Y0199043D01*
X0187933Y0198996D01*
X0187950Y0198946D01*
X0187960Y0198895D01*
X0187964Y0198843D01*
Y0195343D01*
X0187960Y0195290D01*
X0187950Y0195239D01*
X0187933Y0195189D01*
X0187910Y0195142D01*
X0187881Y0195098D01*
X0187846Y0195059D01*
X0187807Y0195025D01*
X0187763Y0194995D01*
X0187716Y0194972D01*
X0187667Y0194955D01*
X0187615Y0194945D01*
X0187563Y0194942D01*
X0184813D01*
X0184795Y0194943D01*
X0184777Y0194943D01*
X0184769Y0194945D01*
X0184761Y0194945D01*
X0184743Y0194949D01*
X0184725Y0194951D01*
X0184717Y0194954D01*
X0184709Y0194955D01*
X0184692Y0194961D01*
X0184675Y0194966D01*
X0184667Y0194970D01*
X0184660Y0194972D01*
X0184643Y0194980D01*
X0184627Y0194988D01*
X0184620Y0194992D01*
X0184613Y0194995D01*
X0184598Y0195005D01*
X0184582Y0195015D01*
X0184576Y0195020D01*
X0184569Y0195025D01*
X0184555Y0195036D01*
X0184541Y0195048D01*
X0184536Y0195054D01*
X0184529Y0195059D01*
X0184518Y0195073D01*
X0184505Y0195086D01*
X0183375Y0196442D01*
X0179751D01*
X0178621Y0195086D01*
X0178608Y0195073D01*
X0178596Y0195059D01*
X0178590Y0195054D01*
X0178585Y0195048D01*
X0178571Y0195036D01*
X0178557Y0195025D01*
X0178550Y0195020D01*
X0178544Y0195015D01*
X0178528Y0195005D01*
X0178513Y0194995D01*
X0178506Y0194992D01*
X0178499Y0194988D01*
X0178483Y0194980D01*
X0178466Y0194972D01*
X0178459Y0194970D01*
X0178451Y0194966D01*
X0178434Y0194961D01*
X0178417Y0194955D01*
X0178409Y0194954D01*
X0178401Y0194951D01*
X0178383Y0194949D01*
X0178365Y0194945D01*
X0178357Y0194945D01*
X0178349Y0194943D01*
X0178331Y0194943D01*
X0178313Y0194942D01*
X0175563D01*
X0175511Y0194945D01*
X0175459Y0194955D01*
X0175410Y0194972D01*
X0175363Y0194995D01*
X0175319Y0195025D01*
X0175279Y0195059D01*
X0175245Y0195098D01*
X0175216Y0195142D01*
X0175193Y0195189D01*
X0175176Y0195239D01*
X0175166Y0195290D01*
X0175162Y0195343D01*
X0175162Y0198843D01*
X0175166Y0198895D01*
X0175176Y0198946D01*
X0175193Y0198996D01*
X0175216Y0199043D01*
X0175245Y0199087D01*
X0175279Y0199126D01*
X0176279Y0200126D01*
X0176319Y0200161D01*
X0176363Y0200190D01*
X0176410Y0200213D01*
X0176459Y0200230D01*
X0176511Y0200240D01*
X0176563Y0200243D01*
X0186563D01*
X0186615Y0200240D01*
D02*
G37*
D52*
X0252969Y0228500D02*
D03*
X0249031D02*
D03*
X0287469Y0186000D02*
D03*
X0283531D02*
D03*
X0287531Y0190500D02*
D03*
X0291469D02*
D03*
X0287531Y0203500D02*
D03*
X0291469D02*
D03*
D53*
X0243400Y0227700D02*
D03*
D54*
Y0229300D02*
D03*
X0239600Y0227800D02*
D03*
D55*
X0240100Y0228500D02*
D03*
D56*
X0239600Y0229200D02*
D03*
D57*
X0230350Y0228500D02*
D03*
D58*
X0233500D02*
D03*
D59*
X0200937Y0203000D02*
D03*
X0194062D02*
D03*
X0200937Y0208500D02*
D03*
X0194062D02*
D03*
X0190063Y0183000D02*
D03*
X0196938D02*
D03*
X0221937Y0186000D02*
D03*
X0215062D02*
D03*
D60*
X0201000Y0217650D02*
D03*
D61*
Y0214500D02*
D03*
D62*
X0182000Y0188500D02*
D03*
X0181500Y0198500D02*
D03*
D63*
X0191079Y0196937D02*
D03*
Y0194968D02*
D03*
X0191079Y0193000D02*
D03*
Y0191032D02*
D03*
Y0189063D02*
D03*
X0200921D02*
D03*
Y0191032D02*
D03*
Y0193000D02*
D03*
X0200921Y0194968D02*
D03*
Y0196937D02*
D03*
D64*
X0196000Y0193000D02*
D03*
D65*
X0206500Y0189063D02*
D03*
Y0195938D02*
D03*
D66*
X0215750Y0191500D02*
D03*
X0221250D02*
D03*
X0221250Y0196500D02*
D03*
X0215750D02*
D03*
X0221250Y0201500D02*
D03*
X0215750D02*
D03*
X0215750Y0206500D02*
D03*
X0221250D02*
D03*
X0221250Y0211500D02*
D03*
X0215750D02*
D03*
X0292250Y0211000D02*
D03*
X0286750D02*
D03*
Y0216000D02*
D03*
X0292250D02*
D03*
D67*
X0264193Y0190335D02*
D03*
X0254350D02*
D03*
X0244409D02*
D03*
X0264193Y0200177D02*
D03*
X0254350D02*
D03*
X0244508D02*
D03*
X0264193Y0210020D02*
D03*
X0254350Y0210020D02*
D03*
D68*
X0244508Y0210020D02*
D03*
D69*
X0237028Y0220256D02*
D03*
X0240177D02*
D03*
X0243327D02*
D03*
X0246476D02*
D03*
X0249626D02*
D03*
X0252776D02*
D03*
X0255925D02*
D03*
X0259075D02*
D03*
X0262224D02*
D03*
X0265374D02*
D03*
X0268524D02*
D03*
X0271673D02*
D03*
Y0180098D02*
D03*
X0268524D02*
D03*
X0265374D02*
D03*
X0262224D02*
D03*
X0259075D02*
D03*
X0255925D02*
D03*
X0252776D02*
D03*
X0249626D02*
D03*
X0246476D02*
D03*
X0243327D02*
D03*
X0240177D02*
D03*
X0237028D02*
D03*
D70*
X0276201Y0217500D02*
D03*
X0276201Y0214350D02*
D03*
Y0211201D02*
D03*
Y0208051D02*
D03*
Y0204902D02*
D03*
Y0201752D02*
D03*
Y0198602D02*
D03*
Y0195453D02*
D03*
Y0192303D02*
D03*
Y0189154D02*
D03*
Y0186004D02*
D03*
Y0182854D02*
D03*
X0232500D02*
D03*
Y0186004D02*
D03*
Y0189154D02*
D03*
Y0192303D02*
D03*
Y0195453D02*
D03*
Y0198602D02*
D03*
Y0201752D02*
D03*
Y0204902D02*
D03*
Y0208051D02*
D03*
Y0211201D02*
D03*
Y0214350D02*
D03*
Y0217500D02*
D03*
D71*
X0287500Y0198969D02*
D03*
Y0195031D02*
D03*
D72*
X0307100Y0198900D02*
D03*
D73*
Y0209900D02*
D03*
Y0187900D02*
D03*
Y0215632D02*
D03*
Y0182168D02*
D03*
D74*
X0166500Y0159000D02*
D03*
X0176500D02*
D03*
X0186500D02*
D03*
X0196500D02*
D03*
X0206500D02*
D03*
X0216500D02*
D03*
X0226500D02*
D03*
X0236500D02*
D03*
X0246500D02*
D03*
X0256500D02*
D03*
X0266500D02*
D03*
X0276500D02*
D03*
X0286500D02*
D03*
X0296500D02*
D03*
X0306500Y0239000D02*
D03*
X0296500D02*
D03*
X0286500D02*
D03*
X0276500D02*
D03*
X0266500D02*
D03*
X0256500D02*
D03*
X0246500D02*
D03*
X0236500D02*
D03*
X0226500D02*
D03*
X0216500D02*
D03*
X0206500D02*
D03*
X0196500D02*
D03*
X0186500D02*
D03*
X0176500D02*
D03*
D75*
X0306500Y0159000D02*
D03*
X0166500Y0239000D02*
D03*
D76*
X0182500Y0217000D02*
D03*
X0166500Y0199000D02*
D03*
Y0179000D02*
D03*
D77*
X0182500Y0207000D02*
D03*
X0166500Y0229000D02*
D03*
Y0209000D02*
D03*
Y0219000D02*
D03*
Y0189000D02*
D03*
M02*
