M48
;Layer_Color=9474304
;FILE_FORMAT=2:5
INCH
;TYPE=PLATED
T1F00S00C0.01968
T2F00S00C0.03543
T3F00S00C0.04000
%
T01
X0196000Y0190835
Y0195165
X0207500Y0199000
X0211000Y0206000
X0211500Y0211000
X0225000
X0225500Y0222000
X0220000Y0219000
X0240000Y0215000
X0246500Y0225000
X0256000Y0226000
X0260000Y0228000
X0265940Y0228025
X0269000Y0225500
X0263000Y0225000
X0281902Y0204902
X0227500Y0198500
X0210000Y0182500
X0205000Y0183500
T02
X0166500Y0159000
X0176500
X0186500
X0196500
X0206500
X0216500
X0226500
X0236500
X0246500
X0256500
X0266500
X0276500
X0286500
X0296500
X0306500
Y0239000
X0296500
X0286500
X0276500
X0266500
X0256500
X0246500
X0236500
X0226500
X0216500
X0206500
X0196500
X0186500
X0176500
X0166500
T03
X0166500Y0179000
Y0189000
Y0199000
Y0209000
Y0219000
Y0229000
X0182500Y0217000
Y0207000
M30
