G04 Layer_Color=8421504*
%FSAX25Y25*%
%MOIN*%
G70*
G01*
G75*
%ADD10R,0.02362X0.01969*%
G04:AMPARAMS|DCode=11|XSize=15.75mil|YSize=30mil|CornerRadius=0mil|HoleSize=0mil|Usage=FLASHONLY|Rotation=315.000|XOffset=0mil|YOffset=0mil|HoleType=Round|Shape=Octagon|*
%AMOCTAGOND11*
4,1,8,0.00782,0.01339,0.01339,0.00782,0.01339,0.00226,-0.00226,-0.01339,-0.00782,-0.01339,-0.01339,-0.00782,-0.01339,-0.00226,0.00226,0.01339,0.00782,0.01339,0.0*
%
%ADD11OCTAGOND11*%

G04:AMPARAMS|DCode=12|XSize=15mil|YSize=30mil|CornerRadius=0mil|HoleSize=0mil|Usage=FLASHONLY|Rotation=225.000|XOffset=0mil|YOffset=0mil|HoleType=Round|Shape=Octagon|*
%AMOCTAGOND12*
4,1,8,0.01326,-0.00796,0.00796,-0.01326,0.00265,-0.01326,-0.01326,0.00265,-0.01326,0.00796,-0.00796,0.01326,-0.00265,0.01326,0.01326,-0.00265,0.01326,-0.00796,0.0*
%
%ADD12OCTAGOND12*%

%ADD13P,0.03677X4X270.0*%
G04:AMPARAMS|DCode=14|XSize=15mil|YSize=30mil|CornerRadius=0mil|HoleSize=0mil|Usage=FLASHONLY|Rotation=315.000|XOffset=0mil|YOffset=0mil|HoleType=Round|Shape=Octagon|*
%AMOCTAGOND14*
4,1,8,0.00796,0.01326,0.01326,0.00796,0.01326,0.00265,-0.00265,-0.01326,-0.00796,-0.01326,-0.01326,-0.00796,-0.01326,-0.00265,0.00265,0.01326,0.00796,0.01326,0.0*
%
%ADD14OCTAGOND14*%

%ADD15O,0.04724X0.03150*%
%ADD16O,0.03937X0.01575*%
%ADD17R,0.03150X0.03937*%
%ADD18O,0.03150X0.04724*%
%ADD19O,0.01575X0.03937*%
%ADD20R,0.06000X0.02000*%
G04:AMPARAMS|DCode=21|XSize=11mil|YSize=31.5mil|CornerRadius=2.75mil|HoleSize=0mil|Usage=FLASHONLY|Rotation=270.000|XOffset=0mil|YOffset=0mil|HoleType=Round|Shape=RoundedRectangle|*
%AMROUNDEDRECTD21*
21,1,0.01100,0.02600,0,0,270.0*
21,1,0.00550,0.03150,0,0,270.0*
1,1,0.00550,-0.01300,-0.00275*
1,1,0.00550,-0.01300,0.00275*
1,1,0.00550,0.01300,0.00275*
1,1,0.00550,0.01300,-0.00275*
%
%ADD21ROUNDEDRECTD21*%
%ADD22R,0.04724X0.07874*%
%ADD23R,0.03937X0.03150*%
%ADD24R,0.03000X0.03000*%
%ADD25R,0.06299X0.06299*%
G04:AMPARAMS|DCode=26|XSize=62.99mil|YSize=62.99mil|CornerRadius=6.3mil|HoleSize=0mil|Usage=FLASHONLY|Rotation=0.000|XOffset=0mil|YOffset=0mil|HoleType=Round|Shape=RoundedRectangle|*
%AMROUNDEDRECTD26*
21,1,0.06299,0.05039,0,0,0.0*
21,1,0.05039,0.06299,0,0,0.0*
1,1,0.01260,0.02520,-0.02520*
1,1,0.01260,-0.02520,-0.02520*
1,1,0.01260,-0.02520,0.02520*
1,1,0.01260,0.02520,0.02520*
%
%ADD26ROUNDEDRECTD26*%
%ADD27R,0.01969X0.03937*%
%ADD28R,0.03937X0.01969*%
%ADD29R,0.01969X0.02362*%
G04:AMPARAMS|DCode=30|XSize=157.48mil|YSize=59.06mil|CornerRadius=14.76mil|HoleSize=0mil|Usage=FLASHONLY|Rotation=0.000|XOffset=0mil|YOffset=0mil|HoleType=Round|Shape=RoundedRectangle|*
%AMROUNDEDRECTD30*
21,1,0.15748,0.02953,0,0,0.0*
21,1,0.12795,0.05906,0,0,0.0*
1,1,0.02953,0.06398,-0.01476*
1,1,0.02953,-0.06398,-0.01476*
1,1,0.02953,-0.06398,0.01476*
1,1,0.02953,0.06398,0.01476*
%
%ADD30ROUNDEDRECTD30*%
%ADD31R,0.15748X0.07874*%
G36*
X0187500Y0188000D02*
X0186500Y0187000D01*
X0176500D01*
X0175500Y0188000D01*
Y0191500D01*
X0178250D01*
X0179500Y0190000D01*
X0183500D01*
X0184750Y0191500D01*
X0187500D01*
Y0188000D01*
D02*
G37*
G36*
X0187563Y0198843D02*
Y0195343D01*
X0184813D01*
X0183563Y0196843D01*
X0179563D01*
X0178313Y0195343D01*
X0175563D01*
X0175563Y0198843D01*
X0176563Y0199843D01*
X0186563D01*
X0187563Y0198843D01*
D02*
G37*
D10*
X0252969Y0228500D02*
D03*
X0249031D02*
D03*
X0287469Y0186000D02*
D03*
X0283531D02*
D03*
X0287531Y0190500D02*
D03*
X0291469D02*
D03*
X0287531Y0203500D02*
D03*
X0291469D02*
D03*
D11*
X0243400Y0227700D02*
D03*
D12*
Y0229300D02*
D03*
X0239600Y0227800D02*
D03*
D13*
X0240100Y0228500D02*
D03*
D14*
X0239600Y0229200D02*
D03*
D15*
X0230350Y0228500D02*
D03*
D16*
X0233500D02*
D03*
D17*
X0200937Y0203000D02*
D03*
X0194062D02*
D03*
X0200937Y0208500D02*
D03*
X0194062D02*
D03*
X0190063Y0183000D02*
D03*
X0196938D02*
D03*
X0221937Y0186000D02*
D03*
X0215062D02*
D03*
D18*
X0201000Y0217650D02*
D03*
D19*
Y0214500D02*
D03*
D20*
X0182000Y0188500D02*
D03*
X0181500Y0198500D02*
D03*
D21*
X0191079Y0196937D02*
D03*
Y0194968D02*
D03*
X0191079Y0193000D02*
D03*
Y0191032D02*
D03*
Y0189063D02*
D03*
X0200921D02*
D03*
Y0191032D02*
D03*
Y0193000D02*
D03*
X0200921Y0194968D02*
D03*
Y0196937D02*
D03*
D22*
X0196000Y0193000D02*
D03*
D23*
X0206500Y0189063D02*
D03*
Y0195938D02*
D03*
D24*
X0215750Y0191500D02*
D03*
X0221250D02*
D03*
X0221250Y0196500D02*
D03*
X0215750D02*
D03*
X0221250Y0201500D02*
D03*
X0215750D02*
D03*
X0215750Y0206500D02*
D03*
X0221250D02*
D03*
X0221250Y0211500D02*
D03*
X0215750D02*
D03*
X0292250Y0211000D02*
D03*
X0286750D02*
D03*
Y0216000D02*
D03*
X0292250D02*
D03*
D25*
X0264193Y0190335D02*
D03*
X0254350D02*
D03*
X0244409D02*
D03*
X0264193Y0200177D02*
D03*
X0254350D02*
D03*
X0244508D02*
D03*
X0264193Y0210020D02*
D03*
X0254350Y0210020D02*
D03*
D26*
X0244508Y0210020D02*
D03*
D27*
X0237028Y0220256D02*
D03*
X0240177D02*
D03*
X0243327D02*
D03*
X0246476D02*
D03*
X0249626D02*
D03*
X0252776D02*
D03*
X0255925D02*
D03*
X0259075D02*
D03*
X0262224D02*
D03*
X0265374D02*
D03*
X0268524D02*
D03*
X0271673D02*
D03*
Y0180098D02*
D03*
X0268524D02*
D03*
X0265374D02*
D03*
X0262224D02*
D03*
X0259075D02*
D03*
X0255925D02*
D03*
X0252776D02*
D03*
X0249626D02*
D03*
X0246476D02*
D03*
X0243327D02*
D03*
X0240177D02*
D03*
X0237028D02*
D03*
D28*
X0276201Y0217500D02*
D03*
X0276201Y0214350D02*
D03*
Y0211201D02*
D03*
Y0208051D02*
D03*
Y0204902D02*
D03*
Y0201752D02*
D03*
Y0198602D02*
D03*
Y0195453D02*
D03*
Y0192303D02*
D03*
Y0189154D02*
D03*
Y0186004D02*
D03*
Y0182854D02*
D03*
X0232500D02*
D03*
Y0186004D02*
D03*
Y0189154D02*
D03*
Y0192303D02*
D03*
Y0195453D02*
D03*
Y0198602D02*
D03*
Y0201752D02*
D03*
Y0204902D02*
D03*
Y0208051D02*
D03*
Y0211201D02*
D03*
Y0214350D02*
D03*
Y0217500D02*
D03*
D29*
X0287500Y0198969D02*
D03*
Y0195031D02*
D03*
D30*
X0307100Y0198900D02*
D03*
D31*
Y0209900D02*
D03*
Y0187900D02*
D03*
Y0215632D02*
D03*
Y0182168D02*
D03*
M02*
